<svg xmlns="http://www.w3.org/2000/svg" xmlns:xlink="http://www.w3.org/1999/xlink" width="500" zoomAndPan="magnify" viewBox="0 0 375 374.999991" height="500" preserveAspectRatio="xMidYMid meet" version="1.0"><defs><clipPath id="8f0a45b7de"><path d="M 0 101 L 375 101 L 375 337.78125 L 0 337.78125 Z M 0 101 " clip-rule="nonzero"/></clipPath></defs><path fill="#000000" d="M 30.457031 161.464844 L 35.972656 172.511719 C 37.351562 175.074219 39.914062 176.652344 42.671875 176.652344 C 43.855469 176.652344 45.035156 176.453125 46.023438 175.863281 C 49.765625 174.089844 51.144531 169.550781 49.371094 165.804688 L 43.855469 154.761719 C 39.714844 146.28125 41.292969 136.222656 47.992188 129.515625 C 59.222656 118.273438 61.984375 101.117188 54.890625 86.917969 L 49.371094 75.871094 C 47.597656 72.125 43.066406 70.746094 39.324219 72.519531 C 35.578125 74.292969 34.199219 78.832031 35.972656 82.578125 L 41.488281 93.621094 C 45.628906 102.101562 44.050781 112.160156 37.351562 118.867188 C 26.121094 130.109375 23.363281 147.265625 30.457031 161.464844 Z M 30.457031 161.464844 " fill-opacity="1" fill-rule="nonzero"/><path fill="#000000" d="M 337.449219 161.464844 L 342.96875 172.511719 C 344.347656 175.074219 346.910156 176.652344 349.667969 176.652344 C 350.851562 176.652344 352.03125 176.453125 353.019531 175.863281 C 356.761719 174.089844 358.140625 169.550781 356.367188 165.804688 L 350.851562 154.761719 C 346.710938 146.28125 348.289062 136.222656 354.988281 129.515625 C 366.21875 118.273438 368.976562 101.117188 361.882812 86.917969 L 356.367188 75.871094 C 354.59375 72.125 350.0625 70.746094 346.316406 72.519531 C 342.574219 74.292969 341.195312 78.832031 342.96875 82.578125 L 348.484375 93.621094 C 352.625 102.101562 351.046875 112.160156 344.347656 118.867188 C 333.117188 130.109375 330.359375 147.265625 337.449219 161.464844 Z M 337.449219 161.464844 " fill-opacity="1" fill-rule="nonzero"/><path fill="#000000" d="M 285.039062 127.742188 L 290.554688 138.785156 C 291.933594 141.351562 294.496094 142.925781 297.253906 142.925781 C 298.4375 142.925781 299.617188 142.730469 300.605469 142.136719 C 304.347656 140.363281 305.726562 135.828125 303.953125 132.082031 L 298.4375 121.035156 C 294.296875 112.554688 295.875 102.496094 302.574219 95.792969 C 313.804688 84.550781 316.5625 67.390625 309.472656 53.191406 L 303.953125 42.148438 C 302.179688 38.402344 297.648438 37.019531 293.902344 38.796875 C 290.160156 40.570312 288.78125 45.105469 290.554688 48.851562 L 296.070312 59.898438 C 300.210938 68.378906 298.632812 78.4375 291.933594 85.140625 C 280.703125 96.382812 277.945312 113.542969 285.039062 127.742188 Z M 285.039062 127.742188 " fill-opacity="1" fill-rule="nonzero"/><path fill="#000000" d="M 86.613281 112.753906 L 92.128906 123.796875 C 93.507812 126.359375 96.070312 127.9375 98.828125 127.9375 C 100.011719 127.9375 101.195312 127.742188 102.179688 127.148438 C 105.921875 125.375 107.304688 120.839844 105.53125 117.089844 L 100.011719 106.046875 C 95.875 97.566406 97.449219 87.507812 104.148438 80.804688 C 115.382812 69.5625 118.140625 52.402344 111.046875 38.203125 L 105.53125 27.160156 C 103.757812 23.410156 99.222656 22.03125 95.480469 23.804688 C 91.734375 25.582031 90.355469 30.117188 92.128906 33.863281 L 97.648438 44.910156 C 101.785156 53.390625 100.210938 63.449219 93.507812 70.152344 C 82.277344 81.394531 79.519531 98.554688 86.613281 112.753906 Z M 86.613281 112.753906 " fill-opacity="1" fill-rule="nonzero"/><g clip-path="url(#8f0a45b7de)"><path fill="#000000" d="M 345.726562 260.273438 C 340.011719 229.113281 325.234375 200.515625 302.378906 177.636719 C 278.929688 154.167969 249.371094 139.179688 217.449219 133.855469 L 217.449219 131.488281 C 217.449219 123.402344 214.296875 115.90625 208.582031 110.1875 C 202.871094 104.46875 195.382812 101.511719 187.5 101.511719 C 179.617188 101.511719 171.933594 104.667969 166.417969 110.1875 C 160.703125 115.90625 157.550781 123.402344 157.550781 131.488281 L 157.550781 133.855469 C 125.429688 139.378906 96.070312 154.367188 72.621094 177.835938 C 49.765625 200.714844 34.988281 229.308594 29.273438 260.472656 C 20.011719 263.625 0.308594 271.910156 0.308594 289.066406 C 0.308594 319.046875 31.636719 337.78125 187.5 337.78125 C 344.152344 337.78125 374.691406 319.835938 374.691406 289.066406 C 374.691406 271.910156 354.988281 263.625 345.726562 260.273438 Z M 172.523438 131.6875 C 172.523438 127.742188 174.101562 123.996094 176.859375 121.035156 C 182.375 115.515625 192.425781 115.515625 197.941406 121.035156 C 200.703125 123.796875 202.277344 127.742188 202.277344 131.6875 L 202.277344 132.277344 C 198.535156 132.082031 194.789062 131.6875 191.046875 131.6875 L 183.558594 131.6875 C 179.816406 131.6875 176.070312 131.882812 172.328125 132.277344 L 172.328125 131.6875 Z M 83.066406 188.289062 C 109.863281 161.464844 145.726562 146.675781 183.757812 146.675781 L 191.242188 146.675781 C 229.273438 146.675781 264.9375 161.464844 291.738281 188.289062 C 317.15625 213.730469 331.933594 247.257812 333.3125 283.152344 C 319.914062 285.914062 279.125 291.828125 187.5 289.066406 C 96.859375 289.066406 55.675781 284.730469 41.6875 282.757812 C 43.261719 247.058594 57.84375 213.730469 83.066406 188.289062 Z M 187.5 322.792969 C 33.214844 322.792969 15.28125 303.464844 15.28125 289.066406 C 15.28125 285.320312 19.421875 281.179688 27.105469 277.433594 C 26.910156 281.179688 26.515625 285.125 26.515625 289.066406 C 26.515625 292.617188 28.878906 295.574219 32.425781 296.363281 C 33.804688 296.757812 68.289062 304.054688 187.304688 304.054688 C 204.050781 304.648438 219.222656 304.84375 233.015625 304.84375 C 310.0625 304.84375 342.96875 297.746094 346.121094 294.394531 C 347.5 293.011719 348.484375 291.039062 348.484375 289.066406 C 348.484375 285.125 348.289062 281.375 347.894531 277.433594 C 354.398438 280.585938 359.71875 284.53125 359.71875 289.066406 C 359.71875 304.84375 340.210938 322.792969 187.5 322.792969 Z M 187.5 322.792969 " fill-opacity="1" fill-rule="nonzero"/></g><path fill="#000000" d="M 139.617188 162.253906 C 138.238281 162.847656 104.9375 177.835938 79.914062 208.996094 C 77.351562 212.152344 77.746094 216.886719 81.097656 219.449219 C 82.476562 220.632812 84.050781 221.027344 85.824219 221.027344 C 87.992188 221.027344 90.160156 220.039062 91.734375 218.265625 C 114.394531 190.0625 145.53125 175.863281 145.921875 175.863281 C 149.667969 174.089844 151.441406 169.75 149.667969 166.003906 C 147.695312 162.253906 143.363281 160.675781 139.617188 162.253906 Z M 139.617188 162.253906 " fill-opacity="1" fill-rule="nonzero"/><path fill="#000000" d="M 78.730469 222.800781 C 75.183594 220.632812 70.652344 222.011719 68.484375 225.5625 C 65.527344 230.691406 62.769531 236.015625 60.800781 241.539062 C 59.222656 245.285156 61.195312 249.820312 64.9375 251.203125 C 65.921875 251.597656 66.710938 251.792969 67.695312 251.792969 C 70.652344 251.792969 73.410156 250.019531 74.59375 247.058594 C 76.367188 242.328125 78.730469 237.59375 81.292969 233.058594 C 83.460938 229.308594 82.277344 224.773438 78.730469 222.800781 Z M 78.730469 222.800781 " fill-opacity="1" fill-rule="nonzero"/></svg>