<svg xmlns="http://www.w3.org/2000/svg" xmlns:xlink="http://www.w3.org/1999/xlink" width="500" zoomAndPan="magnify" viewBox="0 0 375 374.999991" height="500" preserveAspectRatio="xMidYMid meet" version="1.0"><defs><clipPath id="25d10283ca"><path d="M 0 101 L 375 101 L 375 337.78125 L 0 337.78125 Z M 0 101 " clip-rule="nonzero"/></clipPath></defs><path fill="#00bf63" d="M 30.457031 161.34375 L 35.972656 172.375 C 37.351562 174.9375 39.914062 176.515625 42.671875 176.515625 C 43.855469 176.515625 45.035156 176.316406 46.023438 175.726562 C 49.765625 173.953125 51.144531 169.421875 49.371094 165.675781 L 43.855469 154.640625 C 39.714844 146.167969 41.292969 136.121094 47.992188 129.421875 C 59.222656 118.1875 61.984375 101.046875 54.890625 86.859375 L 49.371094 75.824219 C 47.597656 72.082031 43.066406 70.703125 39.324219 72.476562 C 35.578125 74.25 34.199219 78.78125 35.972656 82.523438 L 41.488281 93.558594 C 45.628906 102.03125 44.050781 112.082031 37.351562 118.78125 C 26.121094 130.011719 23.363281 147.15625 30.457031 161.34375 Z M 30.457031 161.34375 " fill-opacity="1" fill-rule="nonzero"/><path fill="#00bf63" d="M 337.449219 161.34375 L 342.96875 172.375 C 344.347656 174.9375 346.910156 176.515625 349.667969 176.515625 C 350.851562 176.515625 352.03125 176.316406 353.019531 175.726562 C 356.761719 173.953125 358.140625 169.421875 356.367188 165.675781 L 350.851562 154.640625 C 346.710938 146.167969 348.289062 136.121094 354.988281 129.421875 C 366.21875 118.1875 368.976562 101.046875 361.882812 86.859375 L 356.367188 75.824219 C 354.59375 72.082031 350.0625 70.703125 346.316406 72.476562 C 342.574219 74.25 341.195312 78.78125 342.96875 82.523438 L 348.484375 93.558594 C 352.625 102.03125 351.046875 112.082031 344.347656 118.78125 C 333.117188 130.011719 330.359375 147.15625 337.449219 161.34375 Z M 337.449219 161.34375 " fill-opacity="1" fill-rule="nonzero"/><path fill="#00bf63" d="M 285.039062 127.648438 L 290.554688 138.683594 C 291.933594 141.242188 294.496094 142.820312 297.253906 142.820312 C 298.4375 142.820312 299.617188 142.621094 300.605469 142.03125 C 304.347656 140.257812 305.726562 135.726562 303.953125 131.980469 L 298.4375 120.949219 C 294.296875 112.476562 295.875 102.425781 302.574219 95.726562 C 313.804688 84.496094 316.5625 67.351562 309.472656 53.164062 L 303.953125 42.128906 C 302.179688 38.386719 297.648438 37.007812 293.902344 38.78125 C 290.160156 40.554688 288.78125 45.085938 290.554688 48.828125 L 296.070312 59.863281 C 300.210938 68.335938 298.632812 78.386719 291.933594 85.085938 C 280.703125 96.316406 277.945312 113.460938 285.039062 127.648438 Z M 285.039062 127.648438 " fill-opacity="1" fill-rule="nonzero"/><path fill="#00bf63" d="M 86.613281 112.671875 L 92.128906 123.707031 C 93.507812 126.269531 96.070312 127.84375 98.828125 127.84375 C 100.011719 127.84375 101.195312 127.648438 102.179688 127.054688 C 105.921875 125.28125 107.304688 120.75 105.53125 117.007812 L 100.011719 105.972656 C 95.875 97.5 97.449219 87.449219 104.148438 80.75 C 115.382812 69.519531 118.140625 52.375 111.046875 38.1875 L 105.53125 27.15625 C 103.757812 23.410156 99.222656 22.03125 95.480469 23.804688 C 91.734375 25.578125 90.355469 30.109375 92.128906 33.855469 L 97.648438 44.886719 C 101.785156 53.363281 100.210938 63.410156 93.507812 70.109375 C 82.277344 81.339844 79.519531 98.484375 86.613281 112.671875 Z M 86.613281 112.671875 " fill-opacity="1" fill-rule="nonzero"/><g clip-path="url(#25d10283ca)"><path fill="#00bf63" d="M 345.726562 260.0625 C 340.011719 228.929688 325.234375 200.355469 302.378906 177.5 C 278.929688 154.050781 249.371094 139.074219 217.449219 133.753906 L 217.449219 131.390625 C 217.449219 123.3125 214.296875 115.824219 208.582031 110.109375 C 202.871094 104.394531 195.382812 101.441406 187.5 101.441406 C 179.617188 101.441406 171.933594 104.59375 166.417969 110.109375 C 160.703125 115.824219 157.550781 123.3125 157.550781 131.390625 L 157.550781 133.753906 C 125.429688 139.273438 96.070312 154.25 72.621094 177.695312 C 49.765625 200.554688 34.988281 229.125 29.273438 260.257812 C 20.011719 263.410156 0.308594 271.6875 0.308594 288.828125 C 0.308594 318.78125 31.636719 337.5 187.5 337.5 C 344.152344 337.5 374.691406 319.570312 374.691406 288.828125 C 374.691406 271.6875 354.988281 263.410156 345.726562 260.0625 Z M 172.523438 131.589844 C 172.523438 127.648438 174.101562 123.902344 176.859375 120.949219 C 182.375 115.429688 192.425781 115.429688 197.941406 120.949219 C 200.703125 123.707031 202.277344 127.648438 202.277344 131.589844 L 202.277344 132.179688 C 198.535156 131.980469 194.789062 131.589844 191.046875 131.589844 L 183.558594 131.589844 C 179.816406 131.589844 176.070312 131.785156 172.328125 132.179688 L 172.328125 131.589844 Z M 83.066406 188.140625 C 109.863281 161.34375 145.726562 146.5625 183.757812 146.5625 L 191.242188 146.5625 C 229.273438 146.5625 264.9375 161.34375 291.738281 188.140625 C 317.15625 213.558594 331.933594 247.054688 333.3125 282.917969 C 319.914062 285.675781 279.125 291.589844 187.5 288.828125 C 96.859375 288.828125 55.675781 284.496094 41.6875 282.523438 C 43.261719 246.859375 57.84375 213.558594 83.066406 188.140625 Z M 187.5 322.523438 C 33.214844 322.523438 15.28125 303.214844 15.28125 288.828125 C 15.28125 285.085938 19.421875 280.949219 27.105469 277.203125 C 26.910156 280.949219 26.515625 284.890625 26.515625 288.828125 C 26.515625 292.375 28.878906 295.332031 32.425781 296.121094 C 33.804688 296.515625 68.289062 303.804688 187.304688 303.804688 C 204.050781 304.394531 219.222656 304.59375 233.015625 304.59375 C 310.0625 304.59375 342.96875 297.5 346.121094 294.148438 C 347.5 292.769531 348.484375 290.800781 348.484375 288.828125 C 348.484375 284.890625 348.289062 281.144531 347.894531 277.203125 C 354.398438 280.355469 359.71875 284.296875 359.71875 288.828125 C 359.71875 304.59375 340.210938 322.523438 187.5 322.523438 Z M 187.5 322.523438 " fill-opacity="1" fill-rule="nonzero"/></g><path fill="#00bf63" d="M 139.617188 162.128906 C 138.238281 162.722656 104.9375 177.695312 79.914062 208.828125 C 77.351562 211.984375 77.746094 216.710938 81.097656 219.273438 C 82.476562 220.457031 84.050781 220.847656 85.824219 220.847656 C 87.992188 220.847656 90.160156 219.863281 91.734375 218.089844 C 114.394531 189.914062 145.53125 175.726562 145.921875 175.726562 C 149.667969 173.953125 151.441406 169.617188 149.667969 165.875 C 147.695312 162.128906 143.363281 160.554688 139.617188 162.128906 Z M 139.617188 162.128906 " fill-opacity="1" fill-rule="nonzero"/><path fill="#00bf63" d="M 78.730469 222.621094 C 75.183594 220.457031 70.652344 221.835938 68.484375 225.382812 C 65.527344 230.503906 62.769531 235.824219 60.800781 241.34375 C 59.222656 245.085938 61.195312 249.617188 64.9375 250.996094 C 65.921875 251.390625 66.710938 251.589844 67.695312 251.589844 C 70.652344 251.589844 73.410156 249.816406 74.59375 246.859375 C 76.367188 242.128906 78.730469 237.402344 81.292969 232.871094 C 83.460938 229.125 82.277344 224.59375 78.730469 222.621094 Z M 78.730469 222.621094 " fill-opacity="1" fill-rule="nonzero"/></svg>