<svg xmlns="http://www.w3.org/2000/svg" xmlns:xlink="http://www.w3.org/1999/xlink" width="500" zoomAndPan="magnify" viewBox="0 0 375 374.999991" height="500" preserveAspectRatio="xMidYMid meet" version="1.0"><defs><clipPath id="ed6b36f66c"><path d="M 79 4 L 323 4 L 323 337.5 L 79 337.5 Z M 79 4 " clip-rule="nonzero"/></clipPath></defs><g clip-path="url(#ed6b36f66c)"><path fill="#00bf63" d="M 318.644531 17.597656 L 272.703125 5.320312 C 254.640625 0.410156 236.226562 11.109375 231.320312 28.996094 L 218.34375 77.214844 L 84.546875 77.214844 C 82.96875 77.214844 81.566406 77.917969 80.515625 78.96875 C 79.464844 80.195312 78.9375 81.773438 79.289062 83.179688 L 111.726562 332.355469 C 112.078125 334.984375 114.359375 337.089844 117.164062 337.089844 L 247.101562 337.089844 C 249.90625 337.089844 252.183594 334.984375 252.535156 332.355469 L 284.976562 83.179688 C 285.152344 81.601562 284.625 80.023438 283.75 78.96875 C 282.695312 77.742188 281.292969 77.214844 279.714844 77.214844 L 252.183594 77.214844 L 260.953125 44.25 C 261.480469 42.144531 262.882812 40.390625 264.8125 39.164062 C 266.738281 37.9375 269.019531 37.761719 271.125 38.289062 L 310.226562 48.808594 C 313.207031 49.511719 316.011719 47.933594 316.890625 44.953125 L 322.5 24.085938 C 323.203125 21.277344 321.449219 18.296875 318.644531 17.597656 Z M 273.402344 88.089844 L 242.367188 326.390625 L 121.722656 326.390625 L 90.6875 88.089844 L 215.535156 88.089844 L 201.507812 140.519531 C 200.632812 140.167969 199.753906 139.992188 198.878906 139.640625 C 188.53125 135.433594 176.785156 135.960938 166.789062 140.695312 C 161.003906 143.5 155.214844 144.902344 149.429688 144.902344 C 132.246094 144.902344 111.902344 132.277344 111.726562 132.101562 C 109.976562 131.050781 107.695312 131.050781 105.941406 132.101562 C 104.1875 133.152344 103.3125 135.257812 103.488281 137.363281 L 127.859375 316.222656 C 128.210938 318.851562 130.492188 320.957031 133.296875 320.957031 L 230.792969 320.957031 C 233.421875 320.957031 235.878906 319.027344 236.226562 316.222656 L 260.601562 137.363281 C 260.953125 135.257812 259.902344 133.152344 257.972656 131.925781 C 256.042969 130.875 253.761719 130.875 252.011719 132.277344 C 247.800781 135.433594 240.964844 139.640625 234.648438 142.273438 L 249.203125 87.914062 L 273.402344 87.914062 Z M 171.347656 252.917969 C 170.996094 254.320312 171.171875 255.726562 171.875 256.953125 C 172.574219 258.179688 173.804688 259.054688 175.207031 259.40625 L 196.074219 265.019531 C 196.597656 265.195312 196.949219 265.195312 197.476562 265.195312 C 199.929688 265.195312 202.035156 263.617188 202.734375 261.160156 L 231.144531 154.898438 C 236.929688 153.496094 243.066406 150.511719 248.152344 147.707031 L 226.058594 310.082031 L 138.03125 310.082031 L 115.761719 146.65625 C 124.355469 150.6875 137.328125 155.773438 149.605469 155.773438 C 156.96875 155.773438 164.507812 154.019531 171.699219 150.339844 C 179.0625 146.832031 187.480469 146.480469 195.019531 149.460938 C 196.25 149.988281 197.476562 150.339844 198.878906 150.863281 Z M 209.046875 154.019531 C 212.730469 154.722656 216.238281 155.246094 219.921875 155.597656 L 193.792969 253.445312 L 183.273438 250.640625 Z M 222.726562 144.726562 C 219.21875 144.550781 215.535156 144.199219 211.855469 143.5 L 226.757812 88.089844 L 237.980469 88.089844 Z M 307.773438 37.058594 L 273.929688 27.941406 C 263.757812 25.136719 253.238281 31.273438 250.433594 41.445312 L 240.789062 77.214844 L 229.566406 77.214844 L 241.664062 31.800781 C 244.996094 19.699219 257.445312 12.335938 269.71875 15.667969 L 310.402344 26.539062 Z M 307.773438 37.058594 " fill-opacity="1" fill-rule="nonzero"/></g><path fill="#00bf63" d="M 145.394531 193.824219 C 143.816406 191.195312 140.484375 190.492188 138.03125 191.894531 C 135.402344 193.476562 134.699219 196.804688 136.101562 199.261719 L 137.503906 201.539062 C 138.558594 203.292969 140.3125 204.171875 142.238281 204.171875 C 143.117188 204.171875 144.167969 203.996094 145.046875 203.46875 C 147.675781 201.890625 148.378906 198.558594 146.972656 196.105469 Z M 145.394531 193.824219 " fill-opacity="1" fill-rule="nonzero"/><path fill="#00bf63" d="M 183.097656 165.066406 C 180.640625 163.488281 177.308594 164.015625 175.554688 166.644531 L 173.976562 168.925781 C 172.398438 171.378906 172.925781 174.710938 175.554688 176.464844 C 176.433594 176.992188 177.484375 177.34375 178.539062 177.34375 C 180.292969 177.34375 182.042969 176.464844 183.097656 174.886719 L 184.675781 172.609375 C 186.253906 169.976562 185.550781 166.644531 183.097656 165.066406 Z M 183.097656 165.066406 " fill-opacity="1" fill-rule="nonzero"/><path fill="#00bf63" d="M 217.289062 269.578125 C 220.269531 269.578125 222.726562 267.121094 222.726562 264.140625 L 222.726562 261.511719 C 222.726562 258.53125 220.269531 256.074219 217.289062 256.074219 C 214.308594 256.074219 211.855469 258.53125 211.855469 261.511719 L 211.855469 264.140625 C 211.855469 267.121094 214.308594 269.578125 217.289062 269.578125 Z M 217.289062 269.578125 " fill-opacity="1" fill-rule="nonzero"/><path fill="#00bf63" d="M 226.585938 209.605469 C 227.636719 211.359375 229.390625 212.414062 231.320312 212.414062 C 232.195312 212.414062 233.070312 212.238281 233.949219 211.710938 C 236.578125 210.308594 237.632812 206.976562 236.226562 204.347656 L 235 201.890625 C 233.597656 199.261719 230.265625 198.210938 227.636719 199.613281 C 225.007812 201.015625 223.953125 204.347656 225.355469 206.976562 Z M 226.585938 209.605469 " fill-opacity="1" fill-rule="nonzero"/><path fill="#00bf63" d="M 159.773438 278.871094 L 157.320312 279.746094 C 154.515625 280.800781 153.113281 283.957031 154.164062 286.761719 C 155.039062 288.867188 156.96875 290.269531 159.25 290.269531 C 159.949219 290.269531 160.476562 290.09375 161.175781 289.917969 L 163.632812 289.042969 C 166.4375 287.988281 167.839844 284.832031 166.789062 282.027344 C 165.5625 279.222656 162.582031 277.820312 159.773438 278.871094 Z M 159.773438 278.871094 " fill-opacity="1" fill-rule="nonzero"/><path fill="#00bf63" d="M 194.496094 291.144531 C 195.546875 292.722656 197.300781 293.601562 199.054688 293.601562 C 200.105469 293.601562 200.984375 293.25 202.035156 292.722656 C 204.488281 291.144531 205.367188 287.8125 203.789062 285.183594 L 202.386719 282.902344 C 200.808594 280.449219 197.476562 279.574219 194.84375 281.152344 C 192.390625 282.730469 191.511719 286.0625 193.089844 288.691406 Z M 194.496094 291.144531 " fill-opacity="1" fill-rule="nonzero"/><path fill="#00bf63" d="M 168.367188 215.917969 C 165.5625 214.691406 162.40625 216.09375 161.351562 218.902344 L 160.300781 221.355469 C 159.25 224.160156 160.476562 227.316406 163.28125 228.371094 C 163.984375 228.71875 164.683594 228.71875 165.210938 228.71875 C 167.316406 228.71875 169.417969 227.492188 170.296875 225.390625 L 171.347656 222.933594 C 172.398438 220.128906 171.171875 216.972656 168.367188 215.917969 Z M 168.367188 215.917969 " fill-opacity="1" fill-rule="nonzero"/></svg>