<svg xmlns="http://www.w3.org/2000/svg" xmlns:xlink="http://www.w3.org/1999/xlink" width="500" zoomAndPan="magnify" viewBox="0 0 375 374.999991" height="500" preserveAspectRatio="xMidYMid meet" version="1.0"><defs><clipPath id="7502ee687b"><path d="M 79 4 L 323 4 L 323 337.5 L 79 337.5 Z M 79 4 " clip-rule="nonzero"/></clipPath></defs><g clip-path="url(#7502ee687b)"><path fill="#000000" d="M 318.875 17.597656 L 272.886719 5.320312 C 254.808594 0.410156 236.378906 11.109375 231.464844 28.996094 L 218.476562 77.214844 L 84.554688 77.214844 C 82.972656 77.214844 81.570312 77.917969 80.515625 78.96875 C 79.464844 80.195312 78.9375 81.773438 79.289062 83.179688 L 111.761719 332.355469 C 112.109375 334.984375 114.394531 337.089844 117.199219 337.089844 L 247.261719 337.089844 C 250.070312 337.089844 252.351562 334.984375 252.703125 332.355469 L 285.175781 83.179688 C 285.347656 81.601562 284.824219 80.023438 283.945312 78.96875 C 282.890625 77.742188 281.488281 77.214844 279.910156 77.214844 L 252.351562 77.214844 L 261.128906 44.25 C 261.652344 42.144531 263.058594 40.390625 264.988281 39.164062 C 266.917969 37.9375 269.203125 37.761719 271.308594 38.289062 L 310.449219 48.808594 C 313.433594 49.511719 316.242188 47.933594 317.117188 44.953125 L 322.734375 24.085938 C 323.4375 21.277344 321.683594 18.296875 318.875 17.597656 Z M 273.589844 88.089844 L 242.523438 326.390625 L 121.765625 326.390625 L 90.699219 88.089844 L 215.667969 88.089844 L 201.625 140.519531 C 200.75 140.167969 199.871094 139.992188 198.992188 139.640625 C 188.636719 135.433594 176.878906 135.960938 166.875 140.695312 C 161.082031 143.5 155.289062 144.902344 149.496094 144.902344 C 132.296875 144.902344 111.933594 132.277344 111.761719 132.101562 C 110.003906 131.050781 107.722656 131.050781 105.96875 132.101562 C 104.210938 133.152344 103.335938 135.257812 103.511719 137.363281 L 127.90625 316.222656 C 128.257812 318.851562 130.539062 320.957031 133.347656 320.957031 L 230.9375 320.957031 C 233.570312 320.957031 236.027344 319.027344 236.378906 316.222656 L 260.777344 137.363281 C 261.128906 135.257812 260.074219 133.152344 258.144531 131.925781 C 256.214844 130.875 253.929688 130.875 252.175781 132.277344 C 247.964844 135.433594 241.117188 139.640625 234.800781 142.273438 L 249.367188 87.914062 L 273.589844 87.914062 Z M 171.4375 252.917969 C 171.085938 254.320312 171.261719 255.726562 171.964844 256.953125 C 172.664062 258.179688 173.894531 259.054688 175.296875 259.40625 L 196.183594 265.019531 C 196.710938 265.195312 197.0625 265.195312 197.589844 265.195312 C 200.046875 265.195312 202.152344 263.617188 202.855469 261.160156 L 231.289062 154.898438 C 237.082031 153.496094 243.226562 150.511719 248.316406 147.707031 L 226.199219 310.082031 L 138.085938 310.082031 L 115.796875 146.65625 C 124.398438 150.6875 137.386719 155.773438 149.671875 155.773438 C 157.042969 155.773438 164.589844 154.019531 171.789062 150.339844 C 179.160156 146.832031 187.585938 146.480469 195.132812 149.460938 C 196.359375 149.988281 197.589844 150.339844 198.992188 150.863281 Z M 209.171875 154.019531 C 212.859375 154.722656 216.371094 155.246094 220.054688 155.597656 L 193.902344 253.445312 L 183.371094 250.640625 Z M 222.863281 144.726562 C 219.355469 144.550781 215.667969 144.199219 211.980469 143.5 L 226.902344 88.089844 L 238.132812 88.089844 Z M 307.992188 37.058594 L 274.117188 27.941406 C 263.9375 25.136719 253.40625 31.273438 250.597656 41.445312 L 240.941406 77.214844 L 229.710938 77.214844 L 241.820312 31.800781 C 245.15625 19.699219 257.617188 12.335938 269.902344 15.667969 L 310.625 26.539062 Z M 307.992188 37.058594 " fill-opacity="1" fill-rule="nonzero"/></g><path fill="#000000" d="M 145.460938 193.824219 C 143.878906 191.195312 140.546875 190.492188 138.085938 191.894531 C 135.453125 193.476562 134.753906 196.804688 136.15625 199.261719 L 137.5625 201.539062 C 138.613281 203.292969 140.371094 204.171875 142.300781 204.171875 C 143.179688 204.171875 144.230469 203.996094 145.109375 203.46875 C 147.742188 201.890625 148.445312 198.558594 147.039062 196.105469 Z M 145.460938 193.824219 " fill-opacity="1" fill-rule="nonzero"/><path fill="#000000" d="M 183.195312 165.066406 C 180.738281 163.488281 177.40625 164.015625 175.648438 166.644531 L 174.070312 168.925781 C 172.488281 171.378906 173.015625 174.710938 175.648438 176.464844 C 176.527344 176.992188 177.578125 177.34375 178.632812 177.34375 C 180.386719 177.34375 182.144531 176.464844 183.195312 174.886719 L 184.777344 172.609375 C 186.355469 169.976562 185.652344 166.644531 183.195312 165.066406 Z M 183.195312 165.066406 " fill-opacity="1" fill-rule="nonzero"/><path fill="#000000" d="M 217.421875 269.578125 C 220.40625 269.578125 222.863281 267.121094 222.863281 264.140625 L 222.863281 261.511719 C 222.863281 258.53125 220.40625 256.074219 217.421875 256.074219 C 214.4375 256.074219 211.980469 258.53125 211.980469 261.511719 L 211.980469 264.140625 C 211.980469 267.121094 214.4375 269.578125 217.421875 269.578125 Z M 217.421875 269.578125 " fill-opacity="1" fill-rule="nonzero"/><path fill="#000000" d="M 226.726562 209.605469 C 227.777344 211.359375 229.535156 212.414062 231.464844 212.414062 C 232.34375 212.414062 233.21875 212.238281 234.097656 211.710938 C 236.730469 210.308594 237.785156 206.976562 236.378906 204.347656 L 235.152344 201.890625 C 233.746094 199.261719 230.410156 198.210938 227.777344 199.613281 C 225.144531 201.015625 224.09375 204.347656 225.496094 206.976562 Z M 226.726562 209.605469 " fill-opacity="1" fill-rule="nonzero"/><path fill="#000000" d="M 159.851562 278.871094 L 157.394531 279.746094 C 154.585938 280.800781 153.183594 283.957031 154.234375 286.761719 C 155.113281 288.867188 157.042969 290.269531 159.324219 290.269531 C 160.027344 290.269531 160.554688 290.09375 161.257812 289.917969 L 163.714844 289.042969 C 166.523438 287.988281 167.925781 284.832031 166.875 282.027344 C 165.644531 279.222656 162.660156 277.820312 159.851562 278.871094 Z M 159.851562 278.871094 " fill-opacity="1" fill-rule="nonzero"/><path fill="#000000" d="M 194.605469 291.144531 C 195.660156 292.722656 197.414062 293.601562 199.167969 293.601562 C 200.222656 293.601562 201.101562 293.25 202.152344 292.722656 C 204.609375 291.144531 205.488281 287.8125 203.90625 285.183594 L 202.503906 282.902344 C 200.925781 280.449219 197.589844 279.574219 194.957031 281.152344 C 192.5 282.730469 191.621094 286.0625 193.203125 288.691406 Z M 194.605469 291.144531 " fill-opacity="1" fill-rule="nonzero"/><path fill="#000000" d="M 168.453125 215.917969 C 165.644531 214.691406 162.484375 216.09375 161.433594 218.902344 L 160.378906 221.355469 C 159.324219 224.160156 160.554688 227.316406 163.363281 228.371094 C 164.066406 228.71875 164.765625 228.71875 165.292969 228.71875 C 167.398438 228.71875 169.507812 227.492188 170.382812 225.390625 L 171.4375 222.933594 C 172.488281 220.128906 171.261719 216.972656 168.453125 215.917969 Z M 168.453125 215.917969 " fill-opacity="1" fill-rule="nonzero"/></svg>