<svg xmlns="http://www.w3.org/2000/svg" xmlns:xlink="http://www.w3.org/1999/xlink" width="500" zoomAndPan="magnify" viewBox="0 0 375 374.999991" height="500" preserveAspectRatio="xMidYMid meet" version="1.0"><path fill="#00bf63" d="M 139.367188 165.394531 C 142.660156 165.394531 145.324219 162.726562 145.324219 159.433594 L 145.324219 156.457031 C 145.324219 153.164062 142.660156 150.5 139.367188 150.5 C 136.074219 150.5 133.410156 153.164062 133.410156 156.457031 L 133.410156 159.433594 C 133.410156 162.726562 136.074219 165.394531 139.367188 165.394531 Z M 139.367188 165.394531 " fill-opacity="1" fill-rule="nonzero"/><path fill="#00bf63" d="M 121.335938 192.515625 C 124.628906 192.515625 127.292969 189.851562 127.292969 186.558594 L 127.292969 183.582031 C 127.292969 180.289062 124.628906 177.621094 121.335938 177.621094 C 118.042969 177.621094 115.378906 180.289062 115.378906 183.582031 L 115.378906 186.402344 C 115.378906 189.851562 118.042969 192.515625 121.335938 192.515625 Z M 121.335938 192.515625 " fill-opacity="1" fill-rule="nonzero"/><path fill="#00bf63" d="M 172.449219 189.539062 C 175.742188 189.539062 178.40625 186.871094 178.40625 183.582031 L 178.40625 180.601562 C 178.40625 177.308594 175.742188 174.644531 172.449219 174.644531 C 169.15625 174.644531 166.492188 177.308594 166.492188 180.601562 L 166.492188 183.582031 C 166.492188 186.714844 169.15625 189.539062 172.449219 189.539062 Z M 172.449219 189.539062 " fill-opacity="1" fill-rule="nonzero"/><path fill="#00bf63" d="M 235.632812 165.394531 C 238.925781 165.394531 241.589844 162.726562 241.589844 159.433594 L 241.589844 156.457031 C 241.589844 153.164062 238.925781 150.5 235.632812 150.5 C 232.339844 150.5 229.675781 153.164062 229.675781 156.457031 L 229.675781 159.433594 C 229.675781 162.726562 232.339844 165.394531 235.632812 165.394531 Z M 235.632812 165.394531 " fill-opacity="1" fill-rule="nonzero"/><path fill="#00bf63" d="M 211.644531 186.402344 C 214.9375 186.402344 217.601562 183.738281 217.601562 180.445312 L 217.601562 177.464844 C 217.601562 174.171875 214.9375 171.507812 211.644531 171.507812 C 208.351562 171.507812 205.6875 174.171875 205.6875 177.464844 L 205.6875 180.445312 C 205.6875 183.738281 208.351562 186.402344 211.644531 186.402344 Z M 211.644531 186.402344 " fill-opacity="1" fill-rule="nonzero"/><path fill="#00bf63" d="M 259.777344 192.515625 C 263.070312 192.515625 265.738281 189.851562 265.738281 186.558594 L 265.738281 183.582031 C 265.738281 180.289062 263.070312 177.621094 259.777344 177.621094 C 256.484375 177.621094 253.820312 180.289062 253.820312 183.582031 L 253.820312 186.402344 C 253.820312 189.851562 256.484375 192.515625 259.777344 192.515625 Z M 259.777344 192.515625 " fill-opacity="1" fill-rule="nonzero"/><path fill="#00bf63" d="M 286.589844 211.488281 C 286.589844 211.175781 286.746094 210.859375 286.746094 210.546875 C 286.746094 162.257812 267.304688 131.839844 229.207031 119.925781 C 227.792969 107.226562 218.542969 96.722656 206.15625 93.898438 C 203.648438 85.433594 209.292969 73.515625 211.957031 69.125 C 213.683594 66.304688 212.898438 62.542969 210.078125 60.816406 C 207.253906 59.09375 203.492188 59.875 201.765625 62.699219 C 201.296875 63.480469 191.734375 79.003906 193.769531 93.585938 C 193.300781 93.742188 192.988281 93.742188 192.515625 93.898438 C 186.871094 89.507812 179.972656 87 172.449219 87 C 172.292969 68.34375 184.679688 48.273438 184.835938 48.117188 C 186.558594 45.292969 185.773438 41.53125 182.953125 39.808594 C 180.132812 38.082031 176.367188 38.867188 174.644531 41.6875 C 173.859375 42.941406 159.433594 66.148438 160.375 89.351562 C 147.988281 94.210938 139.210938 106.128906 139.210938 120.238281 C 139.210938 120.867188 139.210938 121.492188 139.367188 122.121094 C 105.5 135.289062 88.253906 165.078125 88.253906 210.546875 C 88.253906 210.859375 88.410156 211.175781 88.410156 211.488281 C 87.46875 214.308594 87 217.445312 87.46875 220.582031 L 100.796875 313.398438 C 102.679688 326.882812 114.4375 336.917969 127.921875 336.917969 L 247.234375 336.917969 C 260.875 336.917969 272.476562 326.726562 274.359375 313.398438 L 287.6875 220.582031 C 288 217.445312 287.6875 214.46875 286.589844 211.488281 Z M 217.601562 123.21875 C 217.601562 133.09375 209.449219 141.246094 199.574219 141.246094 C 199.101562 141.246094 198.632812 141.089844 198.160156 141.089844 C 202.863281 135.445312 205.6875 128.078125 205.6875 120.238281 C 205.6875 115.066406 204.433594 110.046875 202.238281 105.65625 C 202.550781 105.65625 202.707031 105.65625 203.023438 105.5 C 211.332031 107.226562 217.601562 114.4375 217.601562 123.21875 Z M 162.882812 101.738281 C 163.667969 104.089844 164.609375 106.441406 165.863281 108.636719 C 166.960938 110.519531 169 111.617188 171.039062 111.617188 C 172.136719 111.617188 173.074219 111.300781 174.015625 110.832031 C 176.839844 109.105469 177.9375 105.5 176.210938 102.679688 C 175.585938 101.738281 175.113281 100.640625 174.800781 99.542969 C 185.304688 100.640625 193.613281 109.578125 193.613281 120.394531 C 193.613281 131.996094 184.207031 141.40625 172.605469 141.40625 C 161.003906 141.40625 151.597656 131.996094 151.597656 120.394531 C 151.4375 112.242188 156.144531 105.1875 162.882812 101.738281 Z M 142.34375 133.878906 C 147.519531 145.324219 159.121094 153.320312 172.449219 153.320312 C 177.464844 153.320312 182.167969 152.222656 186.402344 150.183594 C 190.480469 152.222656 195.027344 153.320312 199.574219 153.320312 C 213.054688 153.320312 224.34375 144.382812 228.109375 132.15625 C 256.644531 142.03125 271.851562 164.140625 274.359375 199.574219 C 272.476562 198.945312 270.441406 198.476562 268.402344 198.476562 L 255.230469 198.476562 C 246.136719 198.476562 238.613281 205.84375 238.613281 215.09375 L 238.613281 216.664062 C 238.613281 217.445312 238.296875 218.230469 237.671875 218.855469 C 236.574219 219.953125 234.535156 219.953125 233.4375 218.855469 C 232.8125 218.230469 232.496094 217.445312 232.496094 216.664062 L 232.496094 215.09375 C 232.496094 206 225.128906 198.476562 215.878906 198.476562 L 206.785156 198.476562 C 197.691406 198.476562 190.164062 205.84375 190.164062 215.09375 L 190.164062 216.664062 C 190.164062 219.015625 186.871094 220.425781 185.148438 218.699219 C 184.519531 218.074219 184.207031 217.289062 184.207031 216.503906 L 184.207031 215.09375 C 184.207031 210.703125 182.640625 206.472656 179.503906 203.335938 C 176.523438 200.199219 172.136719 198.476562 167.902344 198.476562 L 158.652344 198.476562 C 154.261719 198.476562 150.027344 200.199219 146.890625 203.335938 C 143.757812 206.472656 142.03125 210.546875 142.03125 215.09375 L 142.03125 216.664062 C 142.03125 217.445312 141.71875 218.230469 141.089844 218.855469 C 139.992188 219.953125 137.957031 219.953125 136.859375 218.855469 C 136.230469 218.230469 135.917969 217.445312 135.917969 216.664062 L 135.917969 215.09375 C 135.917969 206 128.546875 198.476562 119.296875 198.476562 L 106.128906 198.476562 C 104.089844 198.476562 102.050781 198.945312 100.171875 199.574219 C 103.148438 166.019531 116.789062 144.382812 142.34375 133.878906 Z M 275.769531 218.855469 L 262.445312 311.675781 C 261.347656 319.199219 254.761719 324.84375 247.234375 324.84375 L 127.921875 324.84375 C 120.238281 324.84375 113.808594 319.199219 112.714844 311.675781 L 99.386719 218.855469 C 99.074219 216.820312 99.699219 214.625 101.109375 213.054688 C 102.523438 211.488281 104.558594 210.546875 106.597656 210.546875 L 119.769531 210.546875 C 122.277344 210.546875 124.316406 212.585938 124.316406 215.09375 L 124.316406 216.664062 C 124.316406 220.738281 125.882812 224.5 128.707031 227.324219 C 134.347656 232.96875 144.226562 232.96875 150.027344 227.324219 C 152.851562 224.5 154.417969 220.582031 154.417969 216.664062 L 154.417969 215.09375 C 154.417969 213.839844 154.886719 212.742188 155.671875 211.957031 C 156.457031 211.175781 157.710938 210.703125 158.808594 210.703125 L 168.058594 210.703125 C 169.15625 210.703125 170.410156 211.175781 171.195312 211.957031 C 171.976562 212.742188 172.449219 213.839844 172.449219 214.9375 L 172.449219 216.503906 C 172.449219 220.425781 174.015625 224.34375 176.839844 227.324219 C 179.660156 230.144531 183.582031 231.871094 187.5 231.871094 C 195.808594 231.871094 202.394531 225.128906 202.394531 216.976562 L 202.394531 215.40625 C 202.394531 212.898438 204.433594 210.859375 206.941406 210.859375 L 216.035156 210.859375 C 218.542969 210.859375 220.582031 212.898438 220.582031 215.40625 L 220.582031 216.976562 C 220.582031 221.050781 222.148438 224.816406 224.972656 227.636719 C 230.617188 233.28125 240.492188 233.28125 246.292969 227.636719 C 249.117188 224.816406 250.683594 220.894531 250.683594 216.976562 L 250.683594 215.40625 C 250.683594 212.898438 252.722656 210.859375 255.230469 210.859375 L 268.402344 210.859375 C 270.597656 210.859375 272.476562 211.800781 273.890625 213.371094 C 275.457031 214.625 276.085938 216.820312 275.769531 218.855469 Z M 275.769531 218.855469 " fill-opacity="1" fill-rule="nonzero"/><path fill="#00bf63" d="M 187.5 246.609375 C 184.207031 246.609375 181.542969 249.273438 181.542969 252.566406 L 181.542969 303.679688 C 181.542969 306.972656 184.207031 309.636719 187.5 309.636719 C 190.792969 309.636719 193.457031 306.972656 193.457031 303.679688 L 193.457031 252.566406 C 193.613281 249.273438 190.949219 246.609375 187.5 246.609375 Z M 187.5 246.609375 " fill-opacity="1" fill-rule="nonzero"/><path fill="#00bf63" d="M 236.886719 240.808594 C 233.59375 240.179688 230.460938 242.21875 229.832031 245.511719 L 217.757812 302.738281 C 217.132812 306.03125 219.171875 309.167969 222.464844 309.792969 C 222.933594 309.949219 223.246094 309.949219 223.71875 309.949219 C 226.539062 309.949219 229.046875 308.070312 229.675781 305.246094 L 241.75 248.019531 C 242.21875 244.570312 240.179688 241.433594 236.886719 240.808594 Z M 236.886719 240.808594 " fill-opacity="1" fill-rule="nonzero"/><path fill="#00bf63" d="M 145.324219 245.355469 C 144.699219 242.0625 141.40625 240.023438 138.269531 240.652344 C 134.976562 241.277344 132.9375 244.570312 133.566406 247.707031 L 145.636719 304.933594 C 146.265625 307.753906 148.773438 309.636719 151.597656 309.636719 C 152.066406 309.636719 152.378906 309.636719 152.851562 309.480469 C 156.144531 308.851562 158.179688 305.558594 157.554688 302.425781 Z M 145.324219 245.355469 " fill-opacity="1" fill-rule="nonzero"/></svg>