<svg xmlns="http://www.w3.org/2000/svg" xmlns:xlink="http://www.w3.org/1999/xlink" width="500" zoomAndPan="magnify" viewBox="0 0 375 374.999991" height="500" preserveAspectRatio="xMidYMid meet" version="1.0"><defs><clipPath id="753a77c921"><path d="M 22 89 L 353 89 L 353 337.523438 L 22 337.523438 Z M 22 89 " clip-rule="nonzero"/></clipPath></defs><g clip-path="url(#753a77c921)"><path fill="#ffffff" d="M 351.75 256.914062 C 350.71875 255.363281 349.167969 254.847656 347.617188 254.847656 L 306.8125 254.847656 C 308.363281 239.867188 306.296875 225.402344 301.128906 213.523438 C 300.613281 211.972656 300.613281 209.910156 301.648438 208.359375 C 305.261719 202.675781 304.230469 195.445312 300.097656 190.28125 L 316.625 161.355469 C 320.242188 162.386719 323.859375 162.386719 327.472656 161.355469 C 332.636719 159.804688 337.289062 156.707031 339.871094 151.542969 C 345.550781 141.726562 341.9375 128.8125 332.121094 123.132812 C 329.023438 121.066406 325.40625 120.550781 321.792969 120.550781 C 320.242188 117.449219 317.660156 114.867188 314.042969 112.800781 C 309.394531 110.21875 303.714844 109.1875 298.546875 110.734375 C 293.382812 112.285156 288.734375 115.382812 286.152344 120.550781 C 281.503906 128.8125 283.050781 139.144531 289.765625 145.859375 L 273.238281 174.785156 C 271.171875 174.269531 268.589844 174.269531 266.523438 175.300781 C 262.390625 176.335938 258.777344 178.917969 256.710938 182.53125 C 255.675781 184.082031 254.125 185.113281 252.578125 185.113281 C 243.796875 186.148438 235.015625 188.730469 226.234375 193.378906 C 217.453125 189.765625 208.15625 187.699219 197.308594 187.699219 C 189.042969 187.699219 180.78125 188.730469 173.03125 190.796875 C 158.570312 176.335938 139.976562 166.519531 122.414062 164.453125 C 120.863281 164.453125 119.3125 163.421875 118.28125 161.871094 C 116.214844 158.257812 112.597656 155.671875 108.46875 154.640625 C 106.402344 154.125 103.816406 154.125 101.753906 154.125 L 85.222656 125.199219 C 91.9375 118.484375 93.488281 108.152344 88.839844 99.886719 C 86.257812 95.238281 81.609375 91.625 76.441406 90.074219 C 71.277344 88.523438 65.59375 89.558594 60.945312 92.140625 C 57.847656 94.207031 55.265625 96.789062 53.199219 99.886719 C 49.582031 99.886719 45.96875 100.921875 42.867188 102.472656 C 33.054688 108.152344 29.4375 121.066406 35.121094 130.878906 C 38.21875 136.046875 42.351562 139.660156 48.035156 141.210938 C 51.648438 142.242188 55.265625 142.242188 58.878906 141.210938 L 75.410156 170.136719 C 71.277344 175.300781 70.246094 182.53125 73.859375 188.214844 C 74.894531 189.765625 74.894531 191.828125 74.375 193.378906 C 70.246094 202.675781 68.179688 213.523438 68.179688 225.402344 C 64.046875 221.273438 58.878906 218.6875 53.199219 218.6875 C 41.835938 218.6875 32.539062 227.988281 32.539062 239.351562 C 32.539062 242.964844 33.570312 246.582031 35.121094 249.679688 C 34.085938 251.230469 33.570312 253.296875 33.054688 254.847656 L 27.371094 254.847656 C 25.824219 254.847656 24.273438 255.363281 23.242188 256.914062 C 22.207031 257.945312 22.207031 260.011719 22.207031 261.5625 L 42.867188 333.875 C 43.902344 335.941406 45.96875 337.488281 48.035156 337.488281 L 326.957031 337.488281 C 329.023438 337.488281 331.089844 335.941406 332.121094 333.875 L 352.78125 261.5625 C 352.78125 260.011719 352.78125 257.945312 351.75 256.914062 Z M 298.546875 140.175781 C 293.382812 137.078125 291.832031 130.878906 294.933594 125.714844 C 296.480469 123.132812 298.546875 121.582031 301.128906 121.066406 C 303.714844 120.550781 306.8125 120.550781 308.878906 122.097656 C 310.945312 123.132812 312.496094 125.714844 313.527344 127.78125 C 314.558594 130.363281 317.144531 131.914062 319.726562 131.398438 C 321.273438 130.878906 324.375 130.878906 326.957031 132.429688 C 332.121094 135.527344 333.671875 141.726562 330.574219 146.890625 C 329.023438 149.476562 326.957031 151.023438 324.375 151.542969 C 321.792969 152.058594 319.210938 152.058594 316.625 150.507812 C 315.59375 149.992188 314.042969 149.476562 312.496094 149.992188 C 310.945312 150.507812 309.910156 151.023438 309.394531 152.574219 L 291.316406 184.082031 L 282.535156 178.917969 L 300.613281 146.890625 C 302.164062 144.828125 301.128906 141.726562 298.546875 140.175781 Z M 253.609375 195.445312 C 258.257812 194.929688 262.90625 191.828125 265.492188 187.699219 C 266.007812 186.148438 267.554688 185.632812 268.589844 185.113281 C 270.140625 184.597656 271.6875 185.113281 272.722656 185.632812 L 290.285156 195.960938 C 292.867188 197.511719 293.898438 201.128906 292.351562 203.710938 C 289.765625 207.84375 289.765625 213.523438 291.316406 217.65625 C 295.964844 227.988281 297.515625 240.898438 295.964844 254.847656 L 285.636719 254.847656 C 284.085938 254.847656 282.535156 255.363281 281.503906 256.914062 L 267.554688 275.507812 L 255.160156 275.507812 C 258.257812 267.757812 259.808594 258.976562 259.808594 249.679688 C 259.808594 227.988281 251.542969 210.941406 237.082031 200.09375 C 242.761719 197.511719 248.445312 195.960938 253.609375 195.445312 Z M 249.476562 249.679688 C 249.476562 258.976562 247.410156 267.757812 243.28125 275.507812 L 136.359375 275.507812 C 135.328125 273.957031 134.292969 272.925781 133.261719 271.375 C 130.160156 267.757812 125.511719 265.175781 120.863281 265.175781 C 117.765625 265.175781 115.183594 262.59375 115.183594 259.496094 L 115.183594 239.351562 C 115.183594 236.25 117.765625 233.667969 120.863281 233.667969 C 126.027344 233.667969 130.675781 231.085938 133.261719 227.46875 C 146.171875 210.425781 172 198.027344 197.308594 198.027344 C 228.816406 198.027344 249.476562 218.171875 249.476562 249.679688 Z M 105.882812 265.175781 C 107.949219 271.375 113.632812 275.507812 120.863281 275.507812 L 107.433594 275.507812 L 99.6875 265.175781 Z M 105.882812 164.453125 C 107.433594 164.972656 108.46875 166.003906 108.984375 167.035156 C 111.566406 171.6875 115.699219 174.269531 120.863281 174.785156 C 134.292969 176.335938 149.273438 183.566406 161.152344 194.414062 C 146.171875 200.609375 132.742188 209.910156 124.480469 221.789062 C 123.445312 223.339844 121.898438 223.855469 120.347656 223.855469 C 113.632812 223.855469 107.949219 227.988281 105.367188 234.183594 L 77.992188 234.183594 C 76.441406 220.753906 77.992188 207.324219 82.640625 196.996094 C 84.707031 192.347656 84.191406 187.179688 81.609375 182.53125 C 80.058594 179.949219 81.089844 176.335938 83.675781 174.785156 L 101.234375 164.453125 C 103.300781 164.453125 104.851562 163.9375 105.882812 164.453125 Z M 62.496094 129.332031 C 60.945312 128.8125 59.914062 129.332031 58.363281 129.847656 C 55.78125 131.398438 53.199219 131.398438 50.617188 130.878906 C 48.035156 130.363281 45.449219 128.296875 44.417969 126.230469 C 41.320312 121.066406 43.386719 114.867188 48.035156 111.769531 C 50.617188 110.21875 53.714844 110.21875 55.265625 110.734375 C 57.847656 111.253906 60.429688 109.703125 61.464844 107.121094 C 62.496094 104.539062 64.046875 102.472656 66.113281 101.4375 C 68.695312 99.886719 71.277344 99.886719 73.859375 100.40625 C 76.441406 100.921875 79.023438 102.988281 80.058594 105.054688 C 83.15625 110.21875 81.089844 116.417969 76.441406 119.515625 C 73.859375 121.066406 73.34375 124.164062 74.375 126.746094 L 92.453125 158.773438 L 83.671875 163.9375 L 65.59375 132.429688 C 64.5625 130.878906 63.53125 129.847656 62.496094 129.332031 Z M 45.449219 246.066406 C 44.417969 245.03125 42.867188 242.449219 42.867188 239.351562 C 42.867188 233.667969 47.515625 229.019531 53.199219 229.019531 C 58.878906 229.019531 63.53125 233.667969 63.53125 239.351562 C 63.53125 242.449219 65.59375 244.515625 68.695312 244.515625 L 104.851562 244.515625 L 104.851562 254.847656 L 44.417969 254.847656 C 44.933594 254.328125 44.933594 253.8125 45.449219 253.296875 C 47.515625 251.230469 47.515625 248.132812 45.449219 246.066406 Z M 322.824219 327.160156 L 52.164062 327.160156 L 34.085938 265.175781 L 86.773438 265.175781 L 100.71875 283.769531 C 101.753906 285.320312 103.300781 285.835938 104.851562 285.835938 L 270.140625 285.835938 C 271.6875 285.835938 273.238281 285.320312 274.269531 283.769531 L 288.21875 265.175781 L 340.902344 265.175781 Z M 322.824219 327.160156 " fill-opacity="1" fill-rule="nonzero"/></g><path fill="#ffffff" d="M 152.886719 142.761719 C 150.820312 144.828125 150.820312 147.925781 152.886719 149.992188 C 153.921875 151.023438 155.472656 151.542969 156.503906 151.542969 C 157.535156 151.542969 159.085938 151.023438 160.121094 149.992188 C 167.867188 142.242188 167.867188 129.847656 160.121094 122.097656 C 156.503906 118.484375 156.503906 112.285156 160.121094 108.667969 C 162.1875 106.601562 162.1875 103.503906 160.121094 101.4375 C 158.054688 99.371094 154.953125 99.371094 152.886719 101.4375 C 145.140625 109.1875 145.140625 121.582031 152.886719 129.332031 C 156.503906 132.945312 156.503906 139.144531 152.886719 142.761719 Z M 152.886719 142.761719 " fill-opacity="1" fill-rule="nonzero"/><path fill="#ffffff" d="M 183.878906 132.429688 C 181.8125 134.496094 181.8125 137.59375 183.878906 139.660156 C 184.914062 140.695312 186.460938 141.210938 187.496094 141.210938 C 188.527344 141.210938 190.078125 140.695312 191.109375 139.660156 C 198.859375 131.914062 198.859375 119.515625 191.109375 111.769531 C 187.496094 108.152344 187.496094 101.953125 191.109375 98.339844 C 193.175781 96.273438 193.175781 93.171875 191.109375 91.109375 C 189.042969 89.042969 185.945312 89.042969 183.878906 91.109375 C 176.132812 98.855469 176.132812 111.253906 183.878906 119 C 187.496094 122.617188 187.496094 128.8125 183.878906 132.429688 Z M 183.878906 132.429688 " fill-opacity="1" fill-rule="nonzero"/><path fill="#ffffff" d="M 214.871094 142.761719 C 212.804688 144.828125 212.804688 147.925781 214.871094 149.992188 C 215.902344 151.023438 217.453125 151.542969 218.488281 151.542969 C 219.519531 151.542969 221.070312 151.023438 222.101562 149.992188 C 229.851562 142.242188 229.851562 129.847656 222.101562 122.097656 C 218.488281 118.484375 218.488281 112.285156 222.101562 108.667969 C 224.167969 106.601562 224.167969 103.503906 222.101562 101.4375 C 220.035156 99.371094 216.9375 99.371094 214.871094 101.4375 C 207.125 109.1875 207.125 121.582031 214.871094 129.332031 C 218.488281 132.945312 218.488281 139.144531 214.871094 142.761719 Z M 214.871094 142.761719 " fill-opacity="1" fill-rule="nonzero"/></svg>