<svg xmlns="http://www.w3.org/2000/svg" xmlns:xlink="http://www.w3.org/1999/xlink" width="500" zoomAndPan="magnify" viewBox="0 0 375 374.999991" height="500" preserveAspectRatio="xMidYMid meet" version="1.0"><defs><clipPath id="69d7d89269"><path d="M 37.5 38 L 337.5 38 L 337.5 337.5 L 37.5 337.5 Z M 37.5 38 " clip-rule="nonzero"/></clipPath></defs><g clip-path="url(#69d7d89269)"><path fill="#000000" d="M 267.875 61.800781 C 258.527344 47.78125 242.640625 38.433594 224.882812 38.433594 C 220.210938 38.433594 216.003906 38.902344 211.800781 40.304688 C 195.910156 37.5 179.089844 37.5 163.199219 40.304688 C 158.996094 39.371094 154.789062 38.433594 150.117188 38.433594 C 132.359375 38.433594 116.472656 47.78125 107.125 61.800781 C 63.667969 89.371094 37.96875 136.566406 37.96875 187.96875 C 37.96875 245.445312 71.613281 298.714844 123.480469 323.015625 C 123.480469 329.089844 127.6875 334.695312 133.761719 336.566406 C 136.097656 337.03125 138.433594 337.5 140.769531 337.5 C 143.109375 337.5 145.445312 337.03125 147.78125 336.566406 C 150.117188 336.097656 151.984375 334.695312 153.386719 333.292969 C 164.136719 336.097656 175.816406 337.5 187.5 337.5 C 199.183594 337.5 210.398438 336.097656 221.613281 333.292969 C 223.015625 334.695312 224.882812 335.628906 227.21875 336.566406 C 229.554688 337.03125 231.890625 337.5 234.230469 337.5 C 236.566406 337.5 238.902344 337.03125 241.238281 336.566406 C 247.3125 335.164062 251.519531 329.089844 251.519531 323.015625 C 303.386719 298.714844 337.03125 245.910156 337.03125 187.96875 C 337.03125 136.566406 311.332031 89.371094 267.875 61.800781 Z M 224.882812 47.78125 C 244.042969 47.78125 260.863281 60.863281 265.539062 79.554688 C 266.003906 81.425781 265.070312 82.359375 264.601562 83.292969 C 263.667969 84.695312 262.265625 85.164062 260.863281 85.164062 L 257.125 85.164062 C 257.125 84.695312 257.125 83.761719 257.125 83.292969 C 255.722656 76.285156 251.984375 70.210938 246.847656 65.539062 C 244.976562 64.136719 243.109375 63.199219 240.769531 63.199219 C 239.835938 61.332031 237.96875 59.929688 236.097656 58.996094 C 229.089844 56.660156 221.613281 56.660156 215.070312 58.996094 C 213.199219 59.929688 211.332031 61.332031 210.398438 63.199219 C 208.0625 63.199219 206.191406 64.136719 204.324219 65.539062 C 199.183594 70.210938 195.445312 76.753906 194.042969 83.292969 C 194.042969 83.761719 194.042969 84.695312 194.042969 85.164062 L 190.304688 85.164062 C 188.902344 85.164062 187.5 84.695312 186.566406 83.292969 C 186.097656 82.828125 185.164062 81.425781 185.628906 79.554688 C 188.902344 60.863281 205.722656 47.78125 224.882812 47.78125 Z M 247.78125 85.164062 L 233.292969 85.164062 L 240.769531 72.546875 C 244.042969 75.816406 246.847656 80.492188 247.78125 85.164062 Z M 232.359375 67.875 L 224.882812 80.492188 L 217.40625 67.875 C 219.742188 66.9375 222.546875 66.472656 224.882812 66.472656 C 227.21875 66.472656 230.023438 66.9375 232.359375 67.875 Z M 216.9375 85.164062 L 202.453125 85.164062 C 203.386719 80.492188 206.191406 75.816406 209.929688 72.546875 Z M 195.445312 48.246094 C 192.640625 50.117188 189.835938 52.453125 187.5 54.789062 C 185.164062 52.453125 182.359375 50.117188 179.554688 47.78125 C 184.695312 47.78125 189.835938 47.78125 195.445312 48.246094 Z M 109.460938 79.554688 C 114.136719 60.863281 130.957031 47.78125 150.117188 47.78125 C 162.265625 47.78125 173.480469 52.921875 181.425781 62.265625 C 179.554688 65.070312 178.152344 68.339844 176.753906 71.613281 C 175.351562 69.277344 173.480469 66.9375 171.144531 65.070312 C 169.277344 63.667969 167.40625 62.734375 165.070312 62.734375 C 164.136719 60.863281 162.265625 59.460938 160.398438 58.527344 C 153.386719 56.191406 145.910156 56.191406 139.371094 58.527344 C 137.5 59.460938 135.628906 60.863281 134.695312 62.734375 C 132.359375 62.734375 130.492188 63.667969 128.621094 65.070312 C 123.480469 69.742188 119.742188 76.285156 118.339844 82.828125 C 118.339844 83.292969 118.339844 84.230469 118.339844 84.695312 L 114.601562 84.695312 C 113.199219 84.695312 111.800781 84.230469 110.863281 82.828125 C 109.929688 82.828125 108.996094 81.425781 109.460938 79.554688 Z M 173.015625 85.164062 L 158.527344 85.164062 L 166.003906 72.546875 C 169.277344 75.816406 172.078125 80.492188 173.015625 85.164062 Z M 157.59375 67.875 L 150.117188 80.492188 L 142.640625 67.875 C 144.976562 66.9375 147.78125 66.472656 150.117188 66.472656 C 152.453125 66.472656 155.257812 66.9375 157.59375 67.875 Z M 142.171875 85.164062 L 127.6875 85.164062 C 128.621094 80.492188 131.425781 75.816406 135.164062 72.546875 Z M 115.070312 214.136719 L 127.21875 247.78125 C 130.023438 255.722656 134.230469 263.199219 139.835938 269.277344 L 141.238281 272.546875 C 144.042969 279.089844 145.445312 286.097656 145.445312 293.109375 L 145.445312 304.789062 L 134.230469 304.789062 L 133.761719 304.324219 C 128.152344 293.109375 119.742188 284.230469 108.996094 278.621094 L 97.78125 272.078125 C 89.835938 267.40625 84.695312 258.996094 84.695312 250.117188 C 84.695312 242.171875 88.433594 234.695312 94.976562 230.023438 Z M 112.734375 185.628906 C 112.734375 192.171875 107.59375 197.3125 101.050781 197.3125 C 95.910156 197.3125 91.707031 194.042969 89.835938 189.371094 L 80.957031 163.199219 C 77.6875 153.855469 80.957031 143.109375 88.902344 137.03125 C 93.109375 133.761719 98.246094 131.890625 103.855469 131.890625 L 112.734375 131.890625 Z M 144.976562 327.6875 C 142.171875 328.621094 139.371094 328.621094 136.097656 327.6875 C 133.761719 327.21875 132.359375 324.414062 132.828125 322.078125 L 134.695312 314.136719 L 145.910156 314.136719 L 147.78125 322.078125 C 149.183594 324.414062 147.78125 326.753906 144.976562 327.6875 Z M 217.40625 319.742188 C 216.9375 321.613281 216.9375 323.480469 216.9375 324.882812 C 197.3125 329.089844 176.753906 329.089844 157.59375 324.882812 C 157.59375 323.015625 157.59375 321.613281 157.125 319.742188 L 156.191406 315.070312 C 166.472656 317.40625 176.753906 318.808594 187.5 318.808594 C 198.246094 318.808594 208.527344 317.40625 218.808594 315.070312 Z M 220.210938 293.109375 L 220.210938 304.789062 C 199.183594 310.863281 175.816406 310.863281 154.789062 304.789062 L 154.789062 293.109375 C 154.789062 288.902344 154.324219 284.695312 153.386719 280.957031 C 163.199219 287.03125 174.882812 290.769531 187.5 290.769531 C 200.117188 290.769531 211.332031 287.03125 221.613281 280.957031 C 220.675781 285.164062 220.210938 288.902344 220.210938 293.109375 Z M 187.5 281.425781 C 164.136719 281.425781 143.574219 266.9375 135.628906 244.976562 L 122.078125 205.722656 L 122.078125 136.566406 C 122.078125 123.480469 132.359375 113.199219 145.445312 113.199219 L 154.789062 113.199219 C 157.125 113.199219 159.929688 113.667969 162.265625 114.601562 C 178.621094 120.210938 196.378906 120.210938 212.734375 114.601562 C 215.070312 113.667969 217.40625 113.199219 220.210938 113.199219 L 229.554688 113.199219 C 242.640625 113.199219 252.921875 123.480469 252.921875 136.566406 L 252.921875 205.722656 L 239.367188 244.976562 C 231.425781 266.9375 210.863281 281.425781 187.5 281.425781 Z M 238.433594 327.6875 C 235.628906 328.621094 232.828125 328.621094 229.554688 327.6875 C 227.21875 327.21875 225.816406 324.414062 226.285156 322.078125 L 228.152344 314.136719 L 239.371094 314.136719 L 241.238281 322.078125 C 242.640625 324.414062 241.238281 326.753906 238.433594 327.6875 Z M 240.769531 304.324219 L 240.769531 304.789062 L 229.554688 304.789062 L 229.554688 293.109375 C 229.554688 286.097656 230.957031 279.089844 233.761719 272.546875 L 235.164062 269.277344 C 240.769531 263.199219 244.976562 255.722656 247.78125 247.78125 L 259.929688 214.136719 L 280.023438 229.554688 C 286.566406 234.230469 290.304688 241.707031 290.304688 249.648438 C 290.304688 258.996094 285.164062 267.40625 277.21875 271.613281 L 266.003906 278.152344 C 255.257812 284.230469 246.378906 293.109375 240.769531 304.324219 Z M 249.648438 313.667969 L 248.714844 309.929688 L 249.648438 308.527344 C 254.324219 299.183594 261.800781 291.707031 270.675781 286.566406 L 281.890625 280.023438 C 290.769531 274.882812 296.847656 266.472656 299.183594 256.660156 C 311.332031 236.097656 318.339844 211.800781 318.339844 187.96875 C 318.339844 180.023438 317.40625 171.613281 316.003906 163.667969 C 315.539062 161.332031 313.199219 159.460938 310.398438 159.929688 C 308.0625 160.398438 306.191406 162.734375 306.660156 165.539062 C 308.0625 173.015625 308.527344 180.492188 308.527344 187.96875 C 308.527344 205.722656 304.789062 223.015625 297.3125 238.902344 C 294.976562 232.359375 290.769531 226.285156 285.164062 222.078125 L 261.800781 204.324219 L 261.800781 202.921875 C 265.070312 205.257812 269.277344 206.660156 273.480469 206.660156 C 282.359375 206.660156 290.304688 201.050781 293.574219 192.171875 L 302.453125 166.003906 C 306.660156 152.921875 302.453125 138.433594 291.707031 129.554688 C 285.628906 124.882812 278.621094 122.078125 271.144531 122.078125 L 259.460938 122.078125 C 254.324219 110.863281 243.109375 103.386719 230.023438 103.386719 L 220.675781 103.386719 C 216.9375 103.386719 213.667969 103.855469 210.398438 105.257812 C 195.910156 109.929688 180.492188 109.929688 166.003906 105.257812 C 161.800781 104.324219 158.527344 103.855469 154.789062 103.855469 L 145.445312 103.855469 C 132.359375 103.855469 121.144531 111.332031 116.003906 122.546875 L 104.324219 122.546875 C 96.847656 122.546875 89.371094 125.351562 83.761719 130.023438 C 73.015625 138.902344 68.808594 153.386719 73.015625 166.472656 L 81.890625 192.640625 C 84.695312 201.050781 92.640625 207.125 101.984375 207.125 C 106.191406 207.125 110.398438 205.722656 113.667969 203.386719 L 113.667969 204.789062 L 90.304688 222.546875 C 84.695312 226.753906 80.492188 232.828125 78.152344 239.367188 C 69.742188 223.015625 66.003906 205.722656 66.003906 187.96875 C 66.003906 180.492188 66.472656 173.015625 67.875 165.539062 C 68.339844 163.199219 66.472656 160.398438 64.136719 159.929688 C 61.800781 159.460938 58.996094 161.332031 58.527344 163.667969 C 57.59375 171.613281 56.660156 180.023438 56.660156 187.96875 C 56.660156 212.265625 63.199219 236.097656 75.816406 256.660156 C 77.6875 266.472656 83.761719 275.351562 93.109375 280.023438 L 104.324219 286.566406 C 113.199219 291.707031 120.675781 299.183594 125.351562 308.527344 L 126.285156 309.929688 L 125.351562 313.667969 C 78.152344 290.304688 47.3125 241.238281 47.3125 187.96875 C 47.3125 144.507812 66.9375 104.789062 100.117188 78.152344 C 99.648438 81.890625 100.117188 85.628906 102.453125 88.433594 C 91.707031 97.3125 82.828125 108.0625 75.351562 120.210938 C 73.949219 122.546875 74.882812 125.351562 76.753906 126.753906 C 78.152344 127.21875 78.621094 127.21875 79.554688 127.21875 C 80.957031 127.21875 82.828125 126.285156 83.761719 124.882812 C 90.769531 113.199219 100.117188 102.921875 110.863281 94.042969 C 111.800781 94.507812 112.734375 94.507812 114.136719 94.507812 L 260.863281 94.507812 C 262.265625 94.507812 263.199219 94.507812 264.601562 94.042969 C 274.882812 102.453125 284.230469 112.734375 291.238281 124.414062 C 292.171875 125.816406 293.574219 126.753906 295.445312 126.753906 C 296.378906 126.753906 297.3125 126.753906 297.78125 126.285156 C 300.117188 124.882812 300.585938 122.078125 299.183594 119.742188 C 292.171875 108.0625 282.828125 97.78125 272.546875 88.902344 C 274.882812 86.097656 275.351562 82.359375 274.882812 78.621094 C 308.0625 104.789062 327.6875 144.507812 327.6875 187.96875 C 327.6875 241.238281 297.3125 290.304688 249.648438 313.667969 Z M 262.265625 185.628906 L 262.265625 131.890625 L 271.144531 131.890625 C 276.753906 131.890625 281.890625 133.761719 286.097656 137.03125 C 294.042969 143.109375 296.847656 153.855469 294.042969 163.199219 L 285.164062 189.371094 C 283.761719 194.042969 279.089844 197.3125 273.949219 197.3125 C 267.40625 197.3125 262.265625 192.171875 262.265625 185.628906 Z M 262.265625 185.628906 " fill-opacity="1" fill-rule="nonzero"/></g><path fill="#000000" d="M 204.324219 149.648438 C 206.660156 148.246094 207.125 145.445312 205.722656 143.109375 C 204.324219 140.769531 201.519531 140.304688 199.183594 141.707031 L 192.640625 146.378906 L 192.640625 143.109375 L 200.585938 135.164062 C 202.453125 133.292969 202.453125 130.492188 200.585938 128.621094 C 198.714844 126.753906 195.910156 126.753906 194.042969 128.621094 L 192.171875 130.023438 L 192.171875 127.21875 C 192.171875 124.414062 190.304688 122.546875 187.5 122.546875 C 184.695312 122.546875 182.828125 124.414062 182.828125 127.21875 L 182.828125 139.371094 L 181.425781 137.96875 C 179.554688 136.097656 176.753906 136.097656 174.882812 137.96875 C 173.015625 139.835938 173.015625 142.640625 174.882812 144.507812 L 182.828125 152.453125 L 182.828125 155.722656 L 176.285156 151.050781 C 173.949219 149.648438 171.144531 150.117188 169.742188 152.453125 C 168.339844 154.789062 168.808594 157.59375 171.144531 158.996094 L 183.292969 166.9375 L 183.292969 172.078125 L 181.890625 170.675781 C 180.023438 168.808594 177.21875 168.808594 175.351562 170.675781 C 173.480469 172.546875 173.480469 175.351562 175.351562 177.21875 L 183.292969 185.164062 L 183.292969 188.433594 L 176.753906 183.761719 C 174.414062 182.359375 171.613281 182.828125 170.210938 185.164062 C 168.808594 187.5 169.277344 190.304688 171.613281 191.707031 L 183.761719 199.648438 L 183.761719 204.789062 L 182.359375 203.386719 C 180.492188 201.519531 177.6875 201.519531 175.816406 203.386719 C 173.949219 205.257812 173.949219 208.0625 175.816406 209.929688 L 183.761719 217.875 L 183.761719 221.144531 L 177.21875 216.472656 C 174.882812 215.070312 172.078125 215.539062 170.675781 217.875 C 169.277344 220.210938 169.742188 223.015625 172.078125 224.414062 L 184.230469 232.359375 L 184.230469 253.386719 C 184.230469 256.191406 186.097656 258.0625 188.902344 258.0625 C 191.707031 258.0625 193.574219 256.191406 193.574219 253.386719 L 193.574219 241.238281 L 201.519531 233.292969 C 203.386719 231.425781 203.386719 228.621094 201.519531 226.753906 C 199.648438 224.882812 196.847656 224.882812 194.976562 226.753906 L 192.171875 228.152344 L 192.171875 223.015625 L 204.324219 215.070312 C 206.660156 213.667969 207.125 210.863281 205.722656 208.527344 C 204.324219 206.191406 201.519531 205.722656 199.183594 207.125 L 192.640625 211.800781 L 192.640625 208.527344 L 200.585938 200.585938 C 202.453125 198.714844 202.453125 195.910156 200.585938 194.042969 C 198.714844 192.171875 195.910156 192.171875 194.042969 194.042969 L 192.171875 195.445312 L 192.171875 190.304688 L 204.324219 182.359375 C 206.660156 180.957031 207.125 178.152344 205.722656 175.816406 C 204.324219 173.480469 201.519531 173.015625 199.183594 174.414062 L 192.640625 179.089844 L 192.640625 175.816406 L 200.585938 167.875 C 202.453125 166.003906 202.453125 163.199219 200.585938 161.332031 C 198.714844 159.460938 195.910156 159.460938 194.042969 161.332031 L 192.171875 162.734375 L 192.171875 157.59375 Z M 204.324219 149.648438 " fill-opacity="1" fill-rule="nonzero"/></svg>