<svg xmlns="http://www.w3.org/2000/svg" xmlns:xlink="http://www.w3.org/1999/xlink" width="500" zoomAndPan="magnify" viewBox="0 0 375 374.999991" height="500" preserveAspectRatio="xMidYMid meet" version="1.0"><defs><clipPath id="29cad1103e"><path d="M 22 89 L 353.765625 89 L 353.765625 337.523438 L 22 337.523438 Z M 22 89 " clip-rule="nonzero"/></clipPath></defs><g clip-path="url(#29cad1103e)"><path fill="#000000" d="M 352.042969 256.9375 C 351.007812 255.386719 349.457031 254.871094 347.90625 254.871094 L 307.0625 254.871094 C 308.613281 239.886719 306.546875 225.421875 301.378906 213.542969 C 300.859375 211.992188 300.859375 209.925781 301.894531 208.375 C 305.511719 202.691406 304.480469 195.460938 300.34375 190.292969 L 316.886719 161.367188 C 320.503906 162.398438 324.125 162.398438 327.742188 161.367188 C 332.914062 159.816406 337.566406 156.714844 340.152344 151.550781 C 345.835938 141.734375 342.21875 128.820312 332.394531 123.136719 C 329.292969 121.070312 325.675781 120.554688 322.058594 120.554688 C 320.503906 117.453125 317.921875 114.871094 314.300781 112.804688 C 309.648438 110.222656 303.960938 109.1875 298.792969 110.738281 C 293.621094 112.289062 288.96875 115.386719 286.386719 120.554688 C 281.730469 128.820312 283.28125 139.152344 290.003906 145.867188 L 273.460938 174.796875 C 271.394531 174.28125 268.808594 174.28125 266.738281 175.3125 C 262.605469 176.347656 258.984375 178.929688 256.917969 182.546875 C 255.882812 184.09375 254.332031 185.128906 252.78125 185.128906 C 243.992188 186.160156 235.203125 188.746094 226.414062 193.394531 C 217.625 189.777344 208.320312 187.710938 197.464844 187.710938 C 189.191406 187.710938 180.921875 188.746094 173.167969 190.8125 C 158.691406 176.347656 140.078125 166.53125 122.503906 164.464844 C 120.953125 164.464844 119.398438 163.433594 118.367188 161.882812 C 116.296875 158.265625 112.679688 155.683594 108.542969 154.648438 C 106.476562 154.132812 103.890625 154.132812 101.824219 154.132812 L 85.28125 125.203125 C 92 118.488281 93.550781 108.15625 88.898438 99.890625 C 86.3125 95.242188 81.660156 91.625 76.492188 90.074219 C 71.320312 88.523438 65.632812 89.558594 60.980469 92.140625 C 57.878906 94.207031 55.292969 96.789062 53.226562 99.890625 C 49.609375 99.890625 45.988281 100.921875 42.886719 102.472656 C 33.066406 108.15625 29.445312 121.070312 35.132812 130.886719 C 38.234375 136.050781 42.371094 139.667969 48.058594 141.21875 C 51.675781 142.25 55.292969 142.25 58.914062 141.21875 L 75.457031 170.148438 C 71.320312 175.3125 70.289062 182.546875 73.90625 188.226562 C 74.941406 189.777344 74.941406 191.84375 74.421875 193.394531 C 70.289062 202.691406 68.21875 213.542969 68.21875 225.421875 C 64.082031 221.289062 58.914062 218.707031 53.226562 218.707031 C 41.851562 218.707031 32.546875 228.007812 32.546875 239.371094 C 32.546875 242.988281 33.582031 246.605469 35.132812 249.703125 C 34.097656 251.253906 33.582031 253.320312 33.066406 254.871094 L 27.378906 254.871094 C 25.828125 254.871094 24.277344 255.386719 23.242188 256.9375 C 22.207031 257.96875 22.207031 260.035156 22.207031 261.585938 L 42.886719 333.910156 C 43.921875 335.976562 45.988281 337.523438 48.058594 337.523438 L 327.226562 337.523438 C 329.292969 337.523438 331.363281 335.976562 332.394531 333.910156 L 353.074219 261.585938 C 353.074219 260.035156 353.074219 257.96875 352.042969 256.9375 Z M 298.792969 140.183594 C 293.621094 137.085938 292.070312 130.886719 295.171875 125.71875 C 296.726562 123.136719 298.792969 121.585938 301.378906 121.070312 C 303.960938 120.554688 307.0625 120.554688 309.132812 122.105469 C 311.199219 123.136719 312.75 125.71875 313.785156 127.785156 C 314.820312 130.371094 317.402344 131.917969 319.988281 131.402344 C 321.539062 130.886719 324.640625 130.886719 327.226562 132.4375 C 332.394531 135.535156 333.945312 141.734375 330.84375 146.902344 C 329.292969 149.484375 327.226562 151.035156 324.640625 151.550781 C 322.058594 152.066406 319.472656 152.066406 316.886719 150.515625 C 315.851562 150 314.300781 149.484375 312.75 150 C 311.199219 150.515625 310.167969 151.035156 309.648438 152.582031 L 291.554688 184.09375 L 282.765625 178.929688 L 300.859375 146.902344 C 302.410156 144.835938 301.378906 141.734375 298.792969 140.183594 Z M 253.816406 195.460938 C 258.46875 194.945312 263.121094 191.84375 265.707031 187.710938 C 266.222656 186.160156 267.773438 185.644531 268.808594 185.128906 C 270.359375 184.613281 271.910156 185.128906 272.945312 185.644531 L 290.519531 195.976562 C 293.105469 197.527344 294.140625 201.144531 292.589844 203.726562 C 290.003906 207.859375 290.003906 213.542969 291.554688 217.675781 C 296.207031 228.007812 297.757812 240.921875 296.207031 254.871094 L 285.867188 254.871094 C 284.316406 254.871094 282.765625 255.386719 281.730469 256.9375 L 267.773438 275.535156 L 255.367188 275.535156 C 258.46875 267.785156 260.019531 259.003906 260.019531 249.703125 C 260.019531 228.007812 251.746094 210.957031 237.273438 200.109375 C 242.957031 197.527344 248.644531 195.976562 253.816406 195.460938 Z M 249.679688 249.703125 C 249.679688 259.003906 247.613281 267.785156 243.476562 275.535156 L 136.460938 275.535156 C 135.425781 273.984375 134.394531 272.949219 133.359375 271.402344 C 130.257812 267.785156 125.605469 265.203125 120.953125 265.203125 C 117.847656 265.203125 115.265625 262.617188 115.265625 259.519531 L 115.265625 239.371094 C 115.265625 236.273438 117.847656 233.6875 120.953125 233.6875 C 126.121094 233.6875 130.773438 231.105469 133.359375 227.488281 C 146.285156 210.441406 172.132812 198.042969 197.464844 198.042969 C 229 198.042969 249.679688 218.191406 249.679688 249.703125 Z M 105.957031 265.203125 C 108.027344 271.402344 113.714844 275.535156 120.953125 275.535156 L 107.511719 275.535156 L 99.753906 265.203125 Z M 105.957031 164.464844 C 107.511719 164.980469 108.542969 166.015625 109.0625 167.046875 C 111.644531 171.699219 115.78125 174.28125 120.953125 174.796875 C 134.394531 176.347656 149.386719 183.578125 161.277344 194.425781 C 146.285156 200.625 132.84375 209.925781 124.570312 221.808594 C 123.535156 223.355469 121.984375 223.875 120.433594 223.875 C 113.714844 223.875 108.027344 228.007812 105.441406 234.207031 L 78.042969 234.207031 C 76.492188 220.773438 78.042969 207.34375 82.695312 197.011719 C 84.761719 192.359375 84.246094 187.195312 81.660156 182.546875 C 80.109375 179.960938 81.144531 176.347656 83.730469 174.796875 L 101.304688 164.464844 C 103.375 164.464844 104.925781 163.949219 105.957031 164.464844 Z M 62.53125 129.335938 C 60.980469 128.820312 59.949219 129.335938 58.398438 129.851562 C 55.8125 131.402344 53.226562 131.402344 50.640625 130.886719 C 48.058594 130.371094 45.472656 128.304688 44.4375 126.238281 C 41.335938 121.070312 43.402344 114.871094 48.058594 111.773438 C 50.640625 110.222656 53.742188 110.222656 55.292969 110.738281 C 57.878906 111.253906 60.464844 109.707031 61.5 107.121094 C 62.53125 104.539062 64.082031 102.472656 66.152344 101.441406 C 68.734375 99.890625 71.320312 99.890625 73.90625 100.40625 C 76.492188 100.921875 79.074219 102.988281 80.109375 105.054688 C 83.210938 110.222656 81.144531 116.421875 76.492188 119.519531 C 73.90625 121.070312 73.390625 124.171875 74.421875 126.753906 L 92.515625 158.78125 L 83.730469 163.949219 L 65.632812 132.4375 C 64.601562 130.886719 63.566406 129.851562 62.53125 129.335938 Z M 45.472656 246.085938 C 44.4375 245.054688 42.886719 242.472656 42.886719 239.371094 C 42.886719 233.6875 47.539062 229.039062 53.226562 229.039062 C 58.914062 229.039062 63.566406 233.6875 63.566406 239.371094 C 63.566406 242.472656 65.632812 244.539062 68.734375 244.539062 L 104.925781 244.539062 L 104.925781 254.871094 L 44.4375 254.871094 C 44.957031 254.351562 44.957031 253.835938 45.472656 253.320312 C 47.539062 251.253906 47.539062 248.152344 45.472656 246.085938 Z M 323.089844 327.191406 L 52.191406 327.191406 L 34.097656 265.203125 L 86.832031 265.203125 L 100.789062 283.800781 C 101.824219 285.347656 103.375 285.867188 104.925781 285.867188 L 270.359375 285.867188 C 271.910156 285.867188 273.460938 285.347656 274.496094 283.800781 L 288.453125 265.203125 L 341.183594 265.203125 Z M 323.089844 327.191406 " fill-opacity="1" fill-rule="nonzero"/></g><path fill="#000000" d="M 153.003906 142.769531 C 150.9375 144.835938 150.9375 147.933594 153.003906 150 C 154.039062 151.035156 155.589844 151.550781 156.621094 151.550781 C 157.65625 151.550781 159.207031 151.035156 160.242188 150 C 167.996094 142.25 167.996094 129.851562 160.242188 122.105469 C 156.621094 118.488281 156.621094 112.289062 160.242188 108.671875 C 162.308594 106.605469 162.308594 103.507812 160.242188 101.441406 C 158.175781 99.375 155.070312 99.375 153.003906 101.441406 C 145.25 109.1875 145.25 121.585938 153.003906 129.335938 C 156.621094 132.953125 156.621094 139.152344 153.003906 142.769531 Z M 153.003906 142.769531 " fill-opacity="1" fill-rule="nonzero"/><path fill="#000000" d="M 184.023438 132.4375 C 181.953125 134.503906 181.953125 137.601562 184.023438 139.667969 C 185.058594 140.703125 186.609375 141.21875 187.640625 141.21875 C 188.675781 141.21875 190.226562 140.703125 191.261719 139.667969 C 199.015625 131.917969 199.015625 119.519531 191.261719 111.773438 C 187.640625 108.15625 187.640625 101.957031 191.261719 98.339844 C 193.328125 96.273438 193.328125 93.175781 191.261719 91.109375 C 189.191406 89.042969 186.089844 89.042969 184.023438 91.109375 C 176.269531 98.855469 176.269531 111.253906 184.023438 119.003906 C 187.640625 122.621094 187.640625 128.820312 184.023438 132.4375 Z M 184.023438 132.4375 " fill-opacity="1" fill-rule="nonzero"/><path fill="#000000" d="M 215.042969 142.769531 C 212.972656 144.835938 212.972656 147.933594 215.042969 150 C 216.074219 151.035156 217.625 151.550781 218.660156 151.550781 C 219.695312 151.550781 221.246094 151.035156 222.28125 150 C 230.035156 142.25 230.035156 129.851562 222.28125 122.105469 C 218.660156 118.488281 218.660156 112.289062 222.28125 108.671875 C 224.347656 106.605469 224.347656 103.507812 222.28125 101.441406 C 220.210938 99.375 217.109375 99.375 215.042969 101.441406 C 207.285156 109.1875 207.285156 121.585938 215.042969 129.335938 C 218.660156 132.953125 218.660156 139.152344 215.042969 142.769531 Z M 215.042969 142.769531 " fill-opacity="1" fill-rule="nonzero"/></svg>