<svg xmlns="http://www.w3.org/2000/svg" xmlns:xlink="http://www.w3.org/1999/xlink" width="500" zoomAndPan="magnify" viewBox="0 0 375 374.999991" height="500" preserveAspectRatio="xMidYMid meet" version="1.0"><defs><clipPath id="f0ddb0594f"><path d="M 28.324219 121.417969 L 346.324219 121.417969 L 346.324219 337.417969 L 28.324219 337.417969 Z M 28.324219 121.417969 " clip-rule="nonzero"/></clipPath></defs><g clip-path="url(#f0ddb0594f)"><path fill="#000000" d="M 340.296875 259.3125 C 344.148438 255.460938 346.324219 250.269531 346.324219 244.742188 C 346.324219 239.214844 344.148438 234.023438 340.296875 230.171875 C 336.449219 226.316406 331.257812 224.140625 325.734375 224.140625 L 325.734375 213.921875 L 330.925781 213.921875 C 333.769531 213.921875 336.113281 211.578125 336.113281 208.730469 C 336.113281 160.660156 296.949219 121.46875 248.914062 121.46875 L 125.730469 121.46875 C 77.695312 121.636719 38.53125 160.828125 38.53125 208.898438 C 38.53125 211.746094 40.875 214.089844 43.71875 214.089844 L 48.910156 214.089844 L 48.910156 224.308594 C 43.386719 224.308594 38.195312 226.484375 34.347656 230.335938 C 30.5 234.191406 28.324219 239.382812 28.324219 244.742188 C 28.324219 250.269531 30.5 255.460938 34.347656 259.3125 C 38.195312 263.164062 43.386719 265.34375 48.910156 265.34375 L 48.910156 275.558594 L 43.71875 275.558594 C 40.875 275.558594 38.53125 277.90625 38.53125 280.753906 L 38.53125 301.351562 C 38.53125 310.898438 42.214844 319.945312 49.078125 326.8125 C 55.9375 333.679688 64.808594 337.363281 74.515625 337.363281 L 300.128906 337.363281 C 309.667969 337.363281 318.707031 333.679688 325.570312 326.8125 C 332.429688 319.945312 336.113281 311.066406 336.113281 301.351562 L 336.113281 280.753906 C 336.113281 277.90625 333.769531 275.558594 330.925781 275.558594 L 325.734375 275.558594 L 325.734375 265.34375 C 331.257812 265.34375 336.449219 263.164062 340.296875 259.3125 Z M 125.730469 131.855469 L 248.746094 131.855469 C 289.417969 131.855469 322.890625 163.675781 325.570312 203.707031 L 48.910156 203.707031 C 51.585938 163.675781 85.058594 131.855469 125.730469 131.855469 Z M 59.117188 214.089844 L 315.527344 214.089844 L 315.527344 224.308594 L 59.117188 224.308594 Z M 41.542969 252.113281 C 39.535156 250.101562 38.53125 247.589844 38.53125 244.910156 C 38.53125 242.230469 39.535156 239.550781 41.542969 237.707031 C 43.554688 235.699219 46.0625 234.691406 48.742188 234.691406 L 71.335938 234.691406 C 72.675781 237.539062 74.347656 241.558594 74.347656 244.910156 C 74.347656 247.757812 76.523438 250.101562 79.371094 250.101562 C 82.214844 250.101562 84.390625 247.925781 84.558594 245.078125 C 84.558594 241.558594 83.554688 237.875 82.382812 234.691406 L 153.347656 234.691406 C 154.6875 237.539062 156.359375 241.558594 156.359375 244.910156 C 156.359375 247.757812 158.535156 250.101562 161.378906 250.101562 C 164.226562 250.101562 166.402344 247.925781 166.570312 245.078125 C 166.570312 241.558594 165.566406 237.875 164.394531 234.691406 L 237.867188 234.691406 C 239.207031 237.539062 240.878906 241.558594 240.878906 244.910156 C 240.878906 247.757812 243.054688 250.101562 245.902344 250.101562 C 248.746094 250.101562 250.921875 247.925781 251.089844 245.078125 C 251.089844 241.558594 250.085938 237.875 248.914062 234.691406 L 309.5 234.691406 C 310.839844 237.539062 312.515625 241.558594 312.515625 244.910156 C 312.515625 247.757812 314.691406 250.101562 317.535156 250.101562 C 320.378906 250.101562 322.554688 247.925781 322.722656 245.078125 C 322.722656 241.558594 321.71875 237.875 320.546875 234.691406 L 325.234375 234.691406 C 327.910156 234.691406 330.589844 235.699219 332.429688 237.707031 C 334.4375 239.71875 335.445312 242.230469 335.445312 244.910156 C 335.445312 247.589844 334.4375 250.269531 332.429688 252.113281 C 330.589844 253.953125 327.910156 255.125 325.234375 255.125 L 282.722656 255.125 C 283.894531 251.945312 284.898438 248.425781 284.898438 244.742188 C 284.898438 241.894531 282.554688 239.550781 279.710938 239.71875 C 276.863281 239.71875 274.6875 242.0625 274.6875 244.910156 C 274.6875 248.089844 273.015625 252.277344 271.675781 255.125 L 211.089844 255.125 C 212.261719 251.945312 213.265625 248.425781 213.265625 244.742188 C 213.265625 241.894531 210.753906 239.550781 208.078125 239.71875 C 205.230469 239.71875 203.054688 242.0625 203.054688 244.910156 C 203.054688 248.089844 201.382812 252.277344 200.042969 255.125 L 126.234375 255.125 C 127.40625 251.945312 128.410156 248.425781 128.410156 244.742188 C 128.410156 241.894531 126.066406 239.550781 123.21875 239.71875 C 120.375 239.71875 118.199219 242.0625 118.199219 244.910156 C 118.199219 248.089844 116.527344 252.277344 115.1875 255.125 L 48.742188 255.125 C 46.0625 255.125 43.554688 253.953125 41.542969 252.113281 Z M 325.734375 301.351562 C 325.734375 308.21875 323.058594 314.585938 318.203125 319.441406 C 313.351562 324.300781 306.992188 326.980469 300.128906 326.980469 L 74.515625 326.980469 C 67.652344 326.980469 61.292969 324.300781 56.441406 319.441406 C 51.585938 314.585938 48.910156 308.21875 48.910156 301.351562 L 48.910156 285.945312 L 326.070312 285.945312 L 326.070312 301.351562 Z M 315.527344 275.558594 L 59.117188 275.558594 L 59.117188 265.34375 L 315.527344 265.34375 Z M 315.527344 275.558594 " fill-opacity="1" fill-rule="nonzero"/></g><path fill="#000000" d="M 115.519531 160.160156 C 118.367188 160.160156 120.710938 157.816406 120.710938 154.96875 L 120.710938 147.261719 C 120.710938 144.414062 118.367188 142.070312 115.519531 142.070312 C 112.675781 142.070312 110.332031 144.414062 110.332031 147.261719 L 110.332031 154.96875 C 110.332031 157.816406 112.675781 160.160156 115.519531 160.160156 Z M 115.519531 160.160156 " fill-opacity="1" fill-rule="nonzero"/><path fill="#000000" d="M 116.859375 181.097656 L 120.542969 187.796875 C 121.546875 189.46875 123.21875 190.476562 125.0625 190.476562 C 125.898438 190.476562 126.734375 190.308594 127.570312 189.804688 C 130.082031 188.464844 130.917969 185.28125 129.582031 182.769531 L 125.898438 176.070312 C 124.558594 173.558594 121.378906 172.722656 118.867188 174.0625 C 116.359375 175.402344 115.519531 178.582031 116.859375 181.097656 Z M 116.859375 181.097656 " fill-opacity="1" fill-rule="nonzero"/><path fill="#000000" d="M 149.832031 161.5 C 150.667969 163.507812 152.511719 164.515625 154.519531 164.515625 C 155.1875 164.515625 155.855469 164.347656 156.527344 164.011719 C 159.203125 162.839844 160.375 159.824219 159.203125 157.3125 L 156.191406 150.277344 C 155.019531 147.597656 152.007812 146.425781 149.496094 147.597656 C 146.820312 148.769531 145.648438 151.785156 146.820312 154.296875 Z M 149.832031 161.5 " fill-opacity="1" fill-rule="nonzero"/><path fill="#000000" d="M 164.558594 197.34375 C 165.230469 197.675781 166.066406 197.84375 166.734375 197.84375 C 168.578125 197.84375 170.417969 196.839844 171.421875 194.996094 L 174.769531 188.128906 C 175.941406 185.617188 174.9375 182.4375 172.425781 181.261719 C 169.917969 180.089844 166.734375 181.097656 165.566406 183.609375 L 162.21875 190.476562 C 160.878906 192.988281 162.050781 196.167969 164.558594 197.34375 Z M 164.558594 197.34375 " fill-opacity="1" fill-rule="nonzero"/><path fill="#000000" d="M 186.820312 159.15625 C 187.824219 160.828125 189.5 161.667969 191.171875 161.667969 C 192.007812 161.667969 193.011719 161.5 193.851562 160.996094 C 196.359375 159.488281 197.03125 156.476562 195.691406 153.960938 L 191.675781 147.429688 C 190.167969 144.917969 186.988281 144.246094 184.644531 145.585938 C 182.132812 147.09375 181.464844 150.109375 182.804688 152.621094 Z M 186.820312 159.15625 " fill-opacity="1" fill-rule="nonzero"/><path fill="#000000" d="M 212.929688 193.488281 C 215.773438 193.488281 218.117188 191.144531 218.117188 188.296875 L 218.117188 180.59375 C 218.117188 177.746094 215.773438 175.402344 212.929688 175.402344 C 210.085938 175.402344 207.742188 177.746094 207.742188 180.59375 L 207.742188 188.296875 C 207.910156 191.144531 210.085938 193.488281 212.929688 193.488281 Z M 212.929688 193.488281 " fill-opacity="1" fill-rule="nonzero"/><path fill="#000000" d="M 266.824219 170.375 C 269.667969 170.375 272.011719 168.03125 272.011719 165.183594 L 272.011719 157.480469 C 272.011719 154.632812 269.667969 152.289062 266.824219 152.289062 C 263.976562 152.289062 261.632812 154.632812 261.632812 157.480469 L 261.632812 165.183594 C 261.632812 168.03125 263.976562 170.375 266.824219 170.375 Z M 266.824219 170.375 " fill-opacity="1" fill-rule="nonzero"/><path fill="#000000" d="M 228.664062 159.488281 C 230.335938 159.488281 231.84375 158.652344 232.847656 157.3125 L 237.199219 150.949219 C 238.871094 148.601562 238.203125 145.421875 235.859375 143.746094 C 233.515625 142.070312 230.335938 142.742188 228.664062 145.085938 L 224.3125 151.449219 C 222.636719 153.792969 223.308594 156.976562 225.648438 158.652344 C 226.820312 159.15625 227.824219 159.488281 228.664062 159.488281 Z M 228.664062 159.488281 " fill-opacity="1" fill-rule="nonzero"/><path fill="#000000" d="M 255.609375 195.332031 C 256.277344 195.667969 256.949219 195.667969 257.617188 195.667969 C 259.625 195.667969 261.464844 194.496094 262.304688 192.484375 L 265.316406 185.449219 C 266.488281 182.769531 265.148438 179.753906 262.636719 178.75 C 259.960938 177.578125 256.949219 178.917969 255.945312 181.429688 L 252.929688 188.464844 C 251.757812 191.144531 252.929688 194.160156 255.609375 195.332031 Z M 255.609375 195.332031 " fill-opacity="1" fill-rule="nonzero"/><path fill="#000000" d="M 297.617188 198.683594 C 300.464844 198.683594 302.808594 196.335938 302.808594 193.488281 L 302.808594 185.785156 C 302.808594 182.9375 300.464844 180.59375 297.617188 180.59375 C 294.773438 180.59375 292.429688 182.9375 292.429688 185.785156 L 292.429688 193.488281 C 292.429688 196.335938 294.773438 198.683594 297.617188 198.683594 Z M 297.617188 198.683594 " fill-opacity="1" fill-rule="nonzero"/><path fill="#000000" d="M 77.195312 195.164062 C 78.699219 195.164062 80.207031 194.496094 81.210938 193.324219 L 86.066406 187.292969 C 87.90625 185.117188 87.570312 181.933594 85.394531 180.089844 C 83.21875 178.25 80.039062 178.582031 78.199219 180.761719 L 73.34375 186.789062 C 71.503906 188.96875 71.839844 192.148438 74.015625 193.992188 C 74.851562 194.828125 76.023438 195.164062 77.195312 195.164062 Z M 77.195312 195.164062 " fill-opacity="1" fill-rule="nonzero"/></svg>