<svg xmlns="http://www.w3.org/2000/svg" xmlns:xlink="http://www.w3.org/1999/xlink" width="500" zoomAndPan="magnify" viewBox="0 0 375 374.999991" height="500" preserveAspectRatio="xMidYMid meet" version="1.0"><defs><clipPath id="e57ec758a3"><path d="M 28.324219 121.417969 L 346.324219 121.417969 L 346.324219 337.417969 L 28.324219 337.417969 Z M 28.324219 121.417969 " clip-rule="nonzero"/></clipPath></defs><g clip-path="url(#e57ec758a3)"><path fill="#ffffff" d="M 340.640625 259.367188 C 344.496094 255.511719 346.675781 250.316406 346.675781 244.789062 C 346.675781 239.257812 344.496094 234.066406 340.640625 230.210938 C 336.789062 226.359375 331.59375 224.179688 326.066406 224.179688 L 326.066406 213.957031 L 331.257812 213.957031 C 334.109375 213.957031 336.453125 211.613281 336.453125 208.765625 C 336.453125 160.675781 297.246094 121.46875 249.15625 121.46875 L 125.839844 121.46875 C 77.75 121.636719 38.542969 160.84375 38.542969 208.933594 C 38.542969 211.78125 40.890625 214.125 43.738281 214.125 L 48.929688 214.125 L 48.929688 224.347656 C 43.402344 224.347656 38.207031 226.523438 34.355469 230.378906 C 30.5 234.234375 28.324219 239.425781 28.324219 244.789062 C 28.324219 250.316406 30.5 255.511719 34.355469 259.367188 C 38.207031 263.21875 43.402344 265.398438 48.929688 265.398438 L 48.929688 275.617188 L 43.738281 275.617188 C 40.890625 275.617188 38.542969 277.964844 38.542969 280.8125 L 38.542969 301.421875 C 38.542969 310.972656 42.230469 320.019531 49.097656 326.890625 C 55.96875 333.757812 64.847656 337.445312 74.566406 337.445312 L 300.429688 337.445312 C 309.980469 337.445312 319.027344 333.757812 325.898438 326.890625 C 332.765625 320.019531 336.453125 311.140625 336.453125 301.421875 L 336.453125 280.8125 C 336.453125 277.964844 334.109375 275.617188 331.257812 275.617188 L 326.066406 275.617188 L 326.066406 265.398438 C 331.59375 265.398438 336.789062 263.21875 340.640625 259.367188 Z M 125.839844 131.859375 L 248.992188 131.859375 C 289.707031 131.859375 323.214844 163.691406 325.898438 203.738281 L 48.929688 203.738281 C 51.613281 163.691406 85.125 131.859375 125.839844 131.859375 Z M 59.152344 214.125 L 315.84375 214.125 L 315.84375 224.347656 L 59.152344 224.347656 Z M 41.558594 252.160156 C 39.546875 250.148438 38.542969 247.636719 38.542969 244.957031 C 38.542969 242.273438 39.546875 239.59375 41.558594 237.75 C 43.570312 235.742188 46.082031 234.734375 48.765625 234.734375 L 71.382812 234.734375 C 72.722656 237.582031 74.398438 241.605469 74.398438 244.957031 C 74.398438 247.804688 76.578125 250.148438 79.425781 250.148438 C 82.273438 250.148438 84.453125 247.972656 84.621094 245.125 C 84.621094 241.605469 83.613281 237.917969 82.441406 234.734375 L 153.484375 234.734375 C 154.824219 237.582031 156.5 241.605469 156.5 244.957031 C 156.5 247.804688 158.679688 250.148438 161.527344 250.148438 C 164.375 250.148438 166.554688 247.972656 166.722656 245.125 C 166.722656 241.605469 165.714844 237.917969 164.542969 234.734375 L 238.097656 234.734375 C 239.441406 237.582031 241.117188 241.605469 241.117188 244.957031 C 241.117188 247.804688 243.292969 250.148438 246.140625 250.148438 C 248.992188 250.148438 251.167969 247.972656 251.335938 245.125 C 251.335938 241.605469 250.332031 237.917969 249.15625 234.734375 L 309.8125 234.734375 C 311.152344 237.582031 312.828125 241.605469 312.828125 244.957031 C 312.828125 247.804688 315.007812 250.148438 317.855469 250.148438 C 320.703125 250.148438 322.882812 247.972656 323.050781 245.125 C 323.050781 241.605469 322.042969 237.917969 320.871094 234.734375 L 325.5625 234.734375 C 328.242188 234.734375 330.925781 235.742188 332.765625 237.75 C 334.777344 239.761719 335.78125 242.273438 335.78125 244.957031 C 335.78125 247.636719 334.777344 250.316406 332.765625 252.160156 C 330.925781 254.003906 328.242188 255.175781 325.5625 255.175781 L 283.003906 255.175781 C 284.175781 251.992188 285.183594 248.476562 285.183594 244.789062 C 285.183594 241.941406 282.835938 239.59375 279.988281 239.761719 C 277.140625 239.761719 274.960938 242.109375 274.960938 244.957031 C 274.960938 248.140625 273.285156 252.328125 271.945312 255.175781 L 211.289062 255.175781 C 212.464844 251.992188 213.46875 248.476562 213.46875 244.789062 C 213.46875 241.941406 210.957031 239.59375 208.273438 239.761719 C 205.425781 239.761719 203.25 242.109375 203.25 244.957031 C 203.25 248.140625 201.574219 252.328125 200.230469 255.175781 L 126.339844 255.175781 C 127.515625 251.992188 128.519531 248.476562 128.519531 244.789062 C 128.519531 241.941406 126.171875 239.59375 123.324219 239.761719 C 120.476562 239.761719 118.296875 242.109375 118.296875 244.957031 C 118.296875 248.140625 116.625 252.328125 115.28125 255.175781 L 48.765625 255.175781 C 46.082031 255.175781 43.570312 254.003906 41.558594 252.160156 Z M 326.066406 301.421875 C 326.066406 308.292969 323.382812 314.660156 318.523438 319.515625 C 313.664062 324.375 307.300781 327.058594 300.429688 327.058594 L 74.566406 327.058594 C 67.699219 327.058594 61.332031 324.375 56.472656 319.515625 C 51.613281 314.660156 48.929688 308.292969 48.929688 301.421875 L 48.929688 286.007812 L 326.398438 286.007812 L 326.398438 301.421875 Z M 315.84375 275.617188 L 59.152344 275.617188 L 59.152344 265.398438 L 315.84375 265.398438 Z M 315.84375 275.617188 " fill-opacity="1" fill-rule="nonzero"/></g><path fill="#ffffff" d="M 115.617188 160.175781 C 118.464844 160.175781 120.8125 157.828125 120.8125 154.980469 L 120.8125 147.273438 C 120.8125 144.425781 118.464844 142.078125 115.617188 142.078125 C 112.769531 142.078125 110.421875 144.425781 110.421875 147.273438 L 110.421875 154.980469 C 110.421875 157.828125 112.769531 160.175781 115.617188 160.175781 Z M 115.617188 160.175781 " fill-opacity="1" fill-rule="nonzero"/><path fill="#ffffff" d="M 116.957031 181.117188 L 120.644531 187.820312 C 121.648438 189.496094 123.324219 190.5 125.167969 190.5 C 126.007812 190.5 126.84375 190.332031 127.683594 189.832031 C 130.195312 188.492188 131.03125 185.308594 129.691406 182.792969 L 126.007812 176.089844 C 124.664062 173.578125 121.480469 172.742188 118.96875 174.082031 C 116.457031 175.421875 115.617188 178.605469 116.957031 181.117188 Z M 116.957031 181.117188 " fill-opacity="1" fill-rule="nonzero"/><path fill="#ffffff" d="M 149.964844 161.515625 C 150.804688 163.523438 152.648438 164.53125 154.65625 164.53125 C 155.328125 164.53125 156 164.363281 156.667969 164.027344 C 159.347656 162.855469 160.523438 159.839844 159.347656 157.324219 L 156.332031 150.289062 C 155.160156 147.609375 152.144531 146.433594 149.632812 147.609375 C 146.949219 148.78125 145.777344 151.796875 146.949219 154.308594 Z M 149.964844 161.515625 " fill-opacity="1" fill-rule="nonzero"/><path fill="#ffffff" d="M 164.710938 197.371094 C 165.382812 197.707031 166.21875 197.875 166.890625 197.875 C 168.730469 197.875 170.574219 196.867188 171.582031 195.023438 L 174.933594 188.15625 C 176.105469 185.640625 175.097656 182.457031 172.585938 181.285156 C 170.074219 180.113281 166.890625 181.117188 165.714844 183.632812 L 162.367188 190.5 C 161.023438 193.015625 162.199219 196.199219 164.710938 197.371094 Z M 164.710938 197.371094 " fill-opacity="1" fill-rule="nonzero"/><path fill="#ffffff" d="M 186.996094 159.167969 C 188 160.84375 189.675781 161.683594 191.351562 161.683594 C 192.191406 161.683594 193.195312 161.515625 194.03125 161.011719 C 196.546875 159.503906 197.214844 156.488281 195.875 153.976562 L 191.855469 147.441406 C 190.347656 144.925781 187.164062 144.257812 184.816406 145.597656 C 182.304688 147.105469 181.632812 150.121094 182.972656 152.632812 Z M 186.996094 159.167969 " fill-opacity="1" fill-rule="nonzero"/><path fill="#ffffff" d="M 213.132812 193.515625 C 215.980469 193.515625 218.328125 191.171875 218.328125 188.324219 L 218.328125 180.617188 C 218.328125 177.765625 215.980469 175.421875 213.132812 175.421875 C 210.285156 175.421875 207.941406 177.765625 207.941406 180.617188 L 207.941406 188.324219 C 208.105469 191.171875 210.285156 193.515625 213.132812 193.515625 Z M 213.132812 193.515625 " fill-opacity="1" fill-rule="nonzero"/><path fill="#ffffff" d="M 267.085938 170.394531 C 269.933594 170.394531 272.28125 168.050781 272.28125 165.199219 L 272.28125 157.492188 C 272.28125 154.644531 269.933594 152.300781 267.085938 152.300781 C 264.238281 152.300781 261.890625 154.644531 261.890625 157.492188 L 261.890625 165.199219 C 261.890625 168.050781 264.238281 170.394531 267.085938 170.394531 Z M 267.085938 170.394531 " fill-opacity="1" fill-rule="nonzero"/><path fill="#ffffff" d="M 228.882812 159.503906 C 230.558594 159.503906 232.066406 158.667969 233.074219 157.324219 L 237.429688 150.957031 C 239.105469 148.613281 238.433594 145.429688 236.089844 143.753906 C 233.742188 142.078125 230.558594 142.75 228.882812 145.09375 L 224.527344 151.460938 C 222.851562 153.808594 223.523438 156.992188 225.867188 158.667969 C 227.039062 159.167969 228.046875 159.503906 228.882812 159.503906 Z M 228.882812 159.503906 " fill-opacity="1" fill-rule="nonzero"/><path fill="#ffffff" d="M 255.859375 195.359375 C 256.53125 195.695312 257.199219 195.695312 257.871094 195.695312 C 259.882812 195.695312 261.722656 194.523438 262.5625 192.511719 L 265.578125 185.476562 C 266.75 182.792969 265.410156 179.777344 262.898438 178.773438 C 260.214844 177.601562 257.199219 178.941406 256.195312 181.453125 L 253.179688 188.492188 C 252.007812 191.171875 253.179688 194.1875 255.859375 195.359375 Z M 255.859375 195.359375 " fill-opacity="1" fill-rule="nonzero"/><path fill="#ffffff" d="M 297.914062 198.710938 C 300.765625 198.710938 303.109375 196.367188 303.109375 193.515625 L 303.109375 185.808594 C 303.109375 182.960938 300.765625 180.617188 297.914062 180.617188 C 295.066406 180.617188 292.722656 182.960938 292.722656 185.808594 L 292.722656 193.515625 C 292.722656 196.367188 295.066406 198.710938 297.914062 198.710938 Z M 297.914062 198.710938 " fill-opacity="1" fill-rule="nonzero"/><path fill="#ffffff" d="M 77.25 195.191406 C 78.757812 195.191406 80.265625 194.523438 81.269531 193.351562 L 86.128906 187.316406 C 87.972656 185.140625 87.636719 181.957031 85.457031 180.113281 C 83.28125 178.269531 80.097656 178.605469 78.253906 180.785156 L 73.394531 186.816406 C 71.550781 188.992188 71.886719 192.175781 74.066406 194.019531 C 74.902344 194.859375 76.074219 195.191406 77.25 195.191406 Z M 77.25 195.191406 " fill-opacity="1" fill-rule="nonzero"/></svg>